<svg xmlns="http://www.w3.org/2000/svg" xmlns:xlink="http://www.w3.org/1999/xlink" id="apartment" viewBox="0 0 98.783 98.783"><rect width="24.91" height="98.783" transform="translate(70.712)" fill="#dce1f5"></rect><path d="M69.051,98.783H2.85V0h66.2Z" transform="translate(1.842)" fill="#edeff4"></path><path d="M32.656,44.791H19.337a1,1,0,0,0-1.087.922V69.833H33.742V45.713a1,1,0,0,0-1.087-.922Z" transform="translate(11.796 28.95)" fill="#fc4c38"></path><rect width="9.516" height="16.266" rx="0.66" transform="translate(78.516 73.741)" fill="#fc4c38"></rect><rect width="9.516" height="16.266" rx="0.66" transform="translate(45.259 46.724)" fill="#fc4c38"></rect><rect width="9.516" height="16.266" rx="0.66" transform="translate(20.81 46.724)" fill="#fc4c38"></rect><rect width="9.516" height="16.266" rx="0.66" transform="translate(78.516 46.724)" fill="#fc4c38"></rect><rect width="9.516" height="16.266" rx="0.66" transform="translate(45.259 19.691)" fill="#fc4c38"></rect><rect width="9.516" height="16.266" rx="0.66" transform="translate(20.81 19.691)" fill="#fc4c38"></rect><rect width="9.516" height="16.266" rx="0.66" transform="translate(78.516 19.691)" fill="#fc4c38"></rect><rect width="98.783" height="11.261" rx="1.51" transform="translate(0 0.115)" fill="#1d1d89"></rect></svg>