<svg xmlns="http://www.w3.org/2000/svg" xmlns:xlink="http://www.w3.org/1999/xlink" id="low-temperature" viewBox="0 0 93.465 93.458"><g transform="translate(0 0)"><path d="M496.029,397.177a46.733,46.733,0,1,0,46.733-46.726A46.738,46.738,0,0,0,496.029,397.177Z" transform="translate(-496.029 -350.451)" fill="#4b66cd"></path><path d="M497.185,390.152a38.543,38.543,0,1,0,38.546-38.546A38.547,38.547,0,0,0,497.185,390.152Z" transform="translate(-488.998 -343.426)" fill="#fff"></path><g transform="translate(19.064 13.958)"><path d="M511.976,362.818a21.251,21.251,0,0,0-8.045,1.593l-2.84-9.978a30.461,30.461,0,0,1,21.769,0l-2.84,9.978A21.251,21.251,0,0,0,511.976,362.818Z" transform="translate(-484.307 -352.422)" fill="#dce1f5"></path><path d="M515.5,352.706l2.84,9.978a23.258,23.258,0,0,0-11.359,10.332l-8.265-5.587A32.907,32.907,0,0,1,515.5,352.706Z" transform="translate(-498.721 -350.695)" fill="#edeff4"></path><path d="M506.6,352.706l-2.84,9.978a23.289,23.289,0,0,1,11.359,10.332l8.257-5.587A32.865,32.865,0,0,0,506.6,352.706Z" transform="translate(-468.05 -350.695)" fill="#ff501a"></path></g><path d="M2.064,7.894A4.247,4.247,0,1,0,.6,2.07,4.255,4.255,0,0,0,2.064,7.894Z" transform="translate(41.615 46.833) rotate(-42)" fill="#1d1d89"></path><path d="M4.484,52.14l4.951-.568L2.066,0,0,.236Z" transform="translate(24.212 28.009) rotate(-42)" fill="#1d1d89"></path></g></svg>
