<svg xmlns="http://www.w3.org/2000/svg" xmlns:xlink="http://www.w3.org/1999/xlink" id="cave" viewBox="0 0 146.135 132.381"><g transform="translate(-1458 -2889)"><g><path d="M-14104.165-14353.619v7.922h4.479v5.355h4.059v4.314h4.729v4.424h5.371v4.053h5.53v3.813h42.821v-29.881Z" transform="translate(15573.999 17343.119)" fill="#50c49d" stroke="#d4dbf8" stroke-width="4"></path><g transform="translate(1458 2889)"><g transform="translate(0)"><rect width="36.84" height="53.133" transform="translate(104.628 47.34)" fill="#dce1f5"></rect><path d="M100.592,108.057H2.74V51.326L51.131,10.57l49.461,40.756Z" transform="translate(4.037 -7.584)" fill="#edeff4"></path><path d="M106.995,48.072,71.443,18.138a10.894,10.894,0,0,0-7.028-2.578H26.87L64.659,47.391a27.139,27.139,0,0,0,5.2,3.453h36.111a1.581,1.581,0,0,0,1.483-1.046,1.556,1.556,0,0,0-.462-1.727Z" transform="translate(38.584 -0.44)" fill="#1d1d89"></path><path d="M2.936,59.746A2.991,2.991,0,0,1,1.015,54.47L53.759,10.042a3.015,3.015,0,0,1,4.231.365,2.967,2.967,0,0,1-.365,4.207L4.93,59.041a2.967,2.967,0,0,1-1.994.705Z" transform="translate(0.047 -9.342)" fill="#1d1d89"></path><path d="M77.4,59.746a2.967,2.967,0,0,1-1.945-.705L22.712,14.614a2.967,2.967,0,0,1-.365-4.207,3.015,3.015,0,0,1,4.231-.365L79.322,54.47A2.991,2.991,0,0,1,77.4,59.746Z" transform="translate(31.094 -9.342)" fill="#1d1d89"></path></g></g><path d="M0,0H146V4H0Z" transform="translate(1458 2987.119)" fill="#ff501a"></path></g></g></svg>
