<svg xmlns="http://www.w3.org/2000/svg" xmlns:xlink="http://www.w3.org/1999/xlink" id="coal" viewBox="0 0 104.688 70.344"><g id="Groupe_7756" data-name="Groupe 7756" transform="translate(-445 -3583)"><g id="Groupe_7755" data-name="Groupe 7755" transform="translate(445 3583)"><path id="Tracé_25633" data-name="Tracé 25633" d="M1060.837,124c-1.045,2.01-6.538,12.521-7.337,12.92l9.336,13.782c2.53-8.067,5.461-17.537,5.461-17.537Z" transform="translate(-988.346 -97.055)" fill="#42403c"></path><path id="Tracé_25634" data-name="Tracé 25634" d="M1105.1,114.055l-6.064-3.555-12.147,2.65-.172.331,7.46,9.166Z" transform="translate(-1014.23 -86.537)" fill="#63645f"></path><path id="Tracé_25635" data-name="Tracé 25635" d="M1114.043,152.415l5.08-17.006-6.626-8.614-.341-.2-10.923,8.593s-2.931,9.47-5.461,17.537l4.578,6.758Z" transform="translate(-1021.282 -99.077)"></path><path id="Tracé_25636" data-name="Tracé 25636" d="M1120.5,135.188l10.923-8.593h0Z" transform="translate(-1040.548 -99.077)"></path><path id="Tracé_25637" data-name="Tracé 25637" d="M931.286,20.144l-6.128,42.794,33.094-15s-6.405-32.025-6.847-32.687c-.411-.617-7.326-10.224-8.282-11.552C943.3,16.46,933.2,19.654,931.286,20.144Z" transform="translate(-888.35 -3.321)"></path><path id="Tracé_25638" data-name="Tracé 25638" d="M875.878,6.638s-4.521,6.2-9.389,12.8l.291-.018,18.813-.946-.018.128c1.911-.489,12.014-3.684,11.838-16.449L897.3,2Z" transform="translate(-842.638 -2)" fill="#63645f"></path><path id="Tracé_25639" data-name="Tracé 25639" d="M843.589,77.243l-18.73.923-.083-.108C819.223,85.582,813.235,93.594,813,93.476c0,0,6.4,23.19,7.068,22.97s17.669,3.534,17.669,3.534l.035-.016L843.9,77.17C843.7,77.221,843.589,77.243,843.589,77.243Z" transform="translate(-800.963 -60.568)" fill="#42403c"></path><path id="Tracé_25640" data-name="Tracé 25640" d="M866.226,80.958l-.074,0,.036.047Z" transform="translate(-842.376 -63.519)"></path><path id="Tracé_25641" data-name="Tracé 25641" d="M885.131,76.793s.11-.022.31-.073l.018-.128-18.813.946-.291.018-.038.052.083.108Z" transform="translate(-842.504 -60.118)"></path><path id="Tracé_25642" data-name="Tracé 25642" d="M800.93,230.543V230.1l-13.914-10.6H771.776l-9.276,2.65,21.423,8.393Z" transform="translate(-761.617 -171.463)" fill="#63645f"></path><path id="Tracé_25643" data-name="Tracé 25643" d="M845.942,302.395l.011-.03-.453.03Z" transform="translate(-826.285 -236.026)"></path><path id="Tracé_25644" data-name="Tracé 25644" d="M777.715,247.181l.453-.03,2.64-7.259L759.383,231.5c0,.442-.883,10.822-.883,10.822Z" transform="translate(-758.5 -180.812)" fill="#42403c"></path><path id="Tracé_25645" data-name="Tracé 25645" d="M850.986,276.708l18.887-1.245V269.5H852.866Z" transform="translate(-830.559 -210.42)"></path><path id="Tracé_25646" data-name="Tracé 25646" d="M847.549,276.759l.759-.05,1.88-7.209Z" transform="translate(-827.882 -210.42)"></path><path id="Tracé_25647" data-name="Tracé 25647" d="M1022.8,281.472l.2.059-1.5-11.031Z" transform="translate(-963.414 -211.199)"></path><path id="Tracé_25648" data-name="Tracé 25648" d="M961.683,180.676s-11.706-8.834-11.926-9.276-18.111,4.417-18.111,4.417-8,8.862-12.148,13.538l22.528,3.91Z" transform="translate(-883.94 -133.964)" fill="#63645f"></path><path id="Tracé_25649" data-name="Tracé 25649" d="M908.48,252.8c-1.438,1.583-2.423,2.687-2.48,2.8l1.353,4.846,25.458,7.2L931.482,256.7Z" transform="translate(-873.423 -197.406)" fill="#42403c"></path><path id="Tracé_25650" data-name="Tracé 25650" d="M1043.807,235.365l5.742-6.626-8.393-15.239L1021.5,226.089l1.5,11.031.042.012Z" transform="translate(-963.414 -166.788)"></path><path id="Tracé_25651" data-name="Tracé 25651" d="M1135.22,247.88c.569.142,6.178-1,10.1-1.828l-8.552-8.552-10.6,1.1-5.481,1.541c4.065,2.319,11.385,6.618,13.932,8.116C1134.843,247.99,1135.052,247.838,1135.22,247.88Z" transform="translate(-1040.692 -185.487)" fill="#63645f"></path><path id="Tracé_25652" data-name="Tracé 25652" d="M1178.026,278.05c-.169-.042-.377.11-.6.381l.9.532-2.7,3.888,10.132-1.267,2.429-5.3-.061-.061C1184.2,277.052,1178.6,278.193,1178.026,278.05Z" transform="translate(-1083.498 -215.657)"></path><path id="Tracé_25653" data-name="Tracé 25653" d="M1097.5,252.8l1.1,5.522,15.681,3.755a23.55,23.55,0,0,1,2.266-4.478c-2.546-1.5-9.866-5.8-13.932-8.116l-1.587.446Z" transform="translate(-1022.628 -194.821)" fill="#42403c"></path><path id="Tracé_25654" data-name="Tracé 25654" d="M1173.5,306.293v.616l.469-.675Z" transform="translate(-1081.843 -239.041)"></path><path id="Tracé_25655" data-name="Tracé 25655" d="M1175.766,286.225a23.555,23.555,0,0,0-2.266,4.478l.469-.059,2.7-3.888Z" transform="translate(-1081.843 -223.451)"></path><path id="Tracé_25656" data-name="Tracé 25656" d="M1169.956,120.024h0l2.368-1.863h0Z" transform="translate(-1079.081 -92.506)"></path></g></g></svg>
