<svg xmlns="http://www.w3.org/2000/svg" xmlns:xlink="http://www.w3.org/1999/xlink" id="habitable-attic" viewBox="0 0 170.239 86.362"><g transform="translate(-3012 -2038.192)"><g transform="translate(3012 2038.191)"><g transform="translate(0 0)"><g transform="translate(0)"><path d="M152.17,92.373H2.74V72.808l73.9-62.238L152.17,72.808Z" transform="translate(7.609 -6.01)" fill="#edeff4"></path><path d="M4.509,86.315a4.568,4.568,0,0,1-2.934-8.058L82.121,10.411a4.6,4.6,0,0,1,6.461.557,4.53,4.53,0,0,1-.557,6.424L7.554,85.238a4.531,4.531,0,0,1-3.045,1.077Z" transform="translate(0.047 -9.342)" fill="#1d1d89"></path><path d="M106.793,86.315a4.53,4.53,0,0,1-2.971-1.077L23.277,17.393a4.53,4.53,0,0,1-.557-6.424,4.6,4.6,0,0,1,6.461-.557l80.545,67.846a4.568,4.568,0,0,1-2.934,8.058Z" transform="translate(58.89 -9.342)" fill="#1d1d89"></path></g></g></g><rect width="21.324" height="25.664" rx="0.66" transform="matrix(1, -0.017, 0.017, 1, 3086.398, 2088.473)" fill="#50c49d"></rect><path d="M413.319,2973.993l74.87-62.6,74.7,62.6v9.7l-74.7-61-74.87,61Z" transform="translate(2608.98 -862.648)" fill="#50c49d"></path></g></svg>
