<svg xmlns="http://www.w3.org/2000/svg" xmlns:xlink="http://www.w3.org/1999/xlink" id="electric-boiler" viewBox="0 0 108.727 124"><rect id="Rectangle_999" data-name="Rectangle 999" width="108.727" height="124" rx="3.81" transform="translate(0)" fill="#dce1f5"></rect><rect id="Rectangle_1000" data-name="Rectangle 1000" width="90.018" height="124" transform="translate(9.365)" fill="#edeff4"></rect><rect id="Rectangle_1001" data-name="Rectangle 1001" width="70.997" height="33.913" rx="2.06" transform="translate(18.875 78.302)" fill="#4b66cd"></rect><rect id="Rectangle_1002" data-name="Rectangle 1002" width="19.939" height="13.056" rx="0.49" transform="translate(44.404 88.978)" fill="#1d1d89"></rect><ellipse id="Ellipse_139" data-name="Ellipse 139" cx="5.11" cy="5.11" rx="5.11" ry="5.11" transform="translate(27.832 90.405)" fill="#fc4c38"></ellipse><ellipse id="Ellipse_140" data-name="Ellipse 140" cx="5.11" cy="5.11" rx="5.11" ry="5.11" transform="translate(69.496 99.046) rotate(-74.38)" fill="#fc4c38"></ellipse><path id="Tracé_25573" data-name="Tracé 25573" d="M19.025.311.312,18.822A1.077,1.077,0,0,0,.084,20a1.1,1.1,0,0,0,1,.669H8.257L2.224,37.745a1.073,1.073,0,0,0,.45,1.263,1.1,1.1,0,0,0,1.344-.146L22.731,20.351a1.077,1.077,0,0,0,.228-1.173,1.1,1.1,0,0,0-1-.669H14.779l6.04-17.081a1.073,1.073,0,0,0-.45-1.263A1.1,1.1,0,0,0,19.025.311Z" transform="translate(43 19.108)" fill="#fb9f31"></path></svg>
