<svg xmlns="http://www.w3.org/2000/svg" xmlns:xlink="http://www.w3.org/1999/xlink" id="low-efficiency-electric-heating" viewBox="0 0 148.422 98.417"><g id="Radiateur_electrique" transform="translate(-1144 -518)"><g id="Groupe_4904" data-name="Groupe 4904" transform="translate(1144 518)"><rect id="Rectangle_1019" data-name="Rectangle 1019" width="145.944" height="95.937" rx="7.313" transform="translate(1.239 1.24)" fill="#edeff4"></rect><path id="Tracé_13962" data-name="Tracé 13962" d="M296.207,762.213H162.1a5.919,5.919,0,0,1-5.919-5.919v4.782a5.919,5.919,0,0,0,5.919,5.919H296.207a5.918,5.918,0,0,0,5.918-5.919v-4.782A5.918,5.918,0,0,1,296.207,762.213Z" transform="translate(-154.942 -669.817)" fill="#8d9edd"></path><path id="Tracé_13963" data-name="Tracé 13963" d="M295.915,747.861H161.808a7.166,7.166,0,0,1-7.158-7.158V656.6a7.166,7.166,0,0,1,7.158-7.159H295.915a7.166,7.166,0,0,1,7.158,7.159v84.1A7.166,7.166,0,0,1,295.915,747.861ZM161.808,651.924a4.685,4.685,0,0,0-4.679,4.679v84.1a4.684,4.684,0,0,0,4.679,4.679H295.915a4.684,4.684,0,0,0,4.679-4.679V656.6a4.685,4.685,0,0,0-4.679-4.679Z" transform="translate(-154.65 -649.444)" fill="none"></path><g id="Groupe_2019" data-name="Groupe 2019" transform="translate(8.383 8.472)"><path id="Tracé_13964" data-name="Tracé 13964" d="M169.909,741.386h0a4.9,4.9,0,0,1-4.9-4.9V664.813a4.9,4.9,0,0,1,4.9-4.9h0a4.9,4.9,0,0,1,4.9,4.9v71.672A4.9,4.9,0,0,1,169.909,741.386Z" transform="translate(-165.008 -659.913)" fill="#fb9f31"></path><path id="Tracé_13966" data-name="Tracé 13966" d="M195,741.386h0a4.9,4.9,0,0,1-4.9-4.9V664.813a4.9,4.9,0,0,1,4.9-4.9h0a4.9,4.9,0,0,1,4.9,4.9v71.672A4.9,4.9,0,0,1,195,741.386Z" transform="translate(-169.793 -659.913)" fill="#fb9f31"></path><path id="Tracé_13968" data-name="Tracé 13968" d="M220.1,741.386h0a4.9,4.9,0,0,1-4.9-4.9V664.813a4.9,4.9,0,0,1,4.9-4.9h0a4.9,4.9,0,0,1,4.9,4.9v71.672A4.9,4.9,0,0,1,220.1,741.386Z" transform="translate(-174.577 -659.913)" fill="#fb9f31"></path><path id="Tracé_13970" data-name="Tracé 13970" d="M245.19,741.386h0a4.9,4.9,0,0,1-4.9-4.9V664.813a4.9,4.9,0,0,1,4.9-4.9h0a4.9,4.9,0,0,1,4.9,4.9v71.672A4.9,4.9,0,0,1,245.19,741.386Z" transform="translate(-179.362 -659.913)" fill="#fb9f31"></path><g id="Groupe_2016" data-name="Groupe 2016" transform="translate(81.237 0)"><path id="Tracé_13972" data-name="Tracé 13972" d="M270.284,741.386h0a4.9,4.9,0,0,1-4.9-4.9V664.813a4.9,4.9,0,0,1,4.9-4.9h0a4.9,4.9,0,0,1,4.9,4.9v71.672A4.9,4.9,0,0,1,270.284,741.386Z" transform="translate(-265.384 -659.913)" fill="#fb9f31"></path></g><g id="Groupe_2017" data-name="Groupe 2017" transform="translate(101.547 0)"><path id="Tracé_13974" data-name="Tracé 13974" d="M295.378,741.386h0a4.9,4.9,0,0,1-4.9-4.9V664.813a4.9,4.9,0,0,1,4.9-4.9h0a4.9,4.9,0,0,1,4.9,4.9v71.672A4.9,4.9,0,0,1,295.378,741.386Z" transform="translate(-290.478 -659.913)" fill="#fb9f31"></path></g><g id="Groupe_2018" data-name="Groupe 2018" transform="translate(121.856)"><rect id="Rectangle_1020" data-name="Rectangle 1020" width="9.8" height="81.473" rx="4.9" fill="#fb9f31"></rect></g></g></g><path id="Soustraction_8" data-name="Soustraction 8" d="M3.275,80.584h0A4.919,4.919,0,0,1,0,75.951V4.632A4.921,4.921,0,0,1,3.275,0Z" transform="translate(1151.641 527.013)" fill="#4b66cd"></path><path id="Soustraction_15" data-name="Soustraction 15" d="M3.275,80.584h0A4.919,4.919,0,0,1,0,75.951V4.632A4.921,4.921,0,0,1,3.275,0Z" transform="translate(1172.383 527.013)" fill="#4b66cd"></path><path id="Soustraction_16" data-name="Soustraction 16" d="M3.275,80.584h0A4.919,4.919,0,0,1,0,75.951V4.632A4.921,4.921,0,0,1,3.275,0Z" transform="translate(1193.125 527.013)" fill="#4b66cd"></path><path id="Soustraction_17" data-name="Soustraction 17" d="M3.275,80.584h0A4.919,4.919,0,0,1,0,75.951V4.632A4.921,4.921,0,0,1,3.275,0Z" transform="translate(1212.774 527.013)" fill="#4b66cd"></path><path id="Soustraction_18" data-name="Soustraction 18" d="M3.275,80.584h0A4.919,4.919,0,0,1,0,75.951V4.632A4.921,4.921,0,0,1,3.275,0Z" transform="translate(1233.516 527.013)" fill="#4b66cd"></path><path id="Soustraction_19" data-name="Soustraction 19" d="M3.275,80.584h0A4.919,4.919,0,0,1,0,75.951V4.632A4.921,4.921,0,0,1,3.275,0Z" transform="translate(1254.257 527.013)" fill="#4b66cd"></path><path id="Soustraction_20" data-name="Soustraction 20" d="M3.275,80.584h0A4.919,4.919,0,0,1,0,75.951V4.632A4.921,4.921,0,0,1,3.275,0Z" transform="translate(1273.907 527.013)" fill="#4b66cd"></path></g></svg>
