<svg xmlns="http://www.w3.org/2000/svg" xmlns:xlink="http://www.w3.org/1999/xlink" id="fireplace-insert" viewBox="0 0 98.439 110.059"><g transform="translate(0 0)"><path d="M74.485,30.425V.13H27.2v30.3H5.55v68.4H96.14v-68.4Zm0,0" transform="translate(-1.634 -0.13)" fill="#edeff4"></path><rect width="98.44" height="11.361" rx="1.06" transform="translate(0 98.698)" fill="#bdc6e8"></rect><path d="M10.62,44.218v35.3H82.57v-35.3C82.57,32.6,72.4,23.17,59.849,23.17H33.378c-12.537,0-22.721,9.43-22.721,21.048Zm0,0" transform="translate(2.616 19.184)" fill="#fff"></path></g><path d="M.377-.919H47.735V21.073H.377Z" transform="translate(25.193 0.963)" fill="#dce0f4"></path><g transform="translate(35.96 54.254)"><rect width="29.068" height="5.698" rx="1.63" transform="matrix(-0.882, -0.472, 0.472, -0.882, 25.628, 36.802)" fill="#e0b699"></rect><rect width="29.068" height="5.698" rx="1.63" transform="translate(0 31.783) rotate(-28.16)" fill="#efd0b9"></rect><path d="M32.815,17.488a8.83,8.83,0,0,1-17.635,0,18.1,18.1,0,0,1,2.153-7.644c.45-.918.949-1.824,1.466-2.657,1.5,1.909.936,5.388,1.393,7.3A2.1,2.1,0,0,0,22.976,16.1c1.532-.559,1.3-2.3,1-3.582-.426-1.824-2.293-3.345-2.323-6.951A7.632,7.632,0,0,1,23.979.09s-.754,3.795-.231,5.82c.334,1.289,1.259,2.6,2.432,2.25,1.709-.523-.225-2.566.845-4.342C29.562,7.278,32.815,12.666,32.815,17.488Z" transform="translate(-9.829 -0.09)" fill="#ff501a"></path></g><rect width="98.44" height="11.361" rx="1.06" transform="translate(0 21.985)" fill="#1d1d89"></rect></svg>
