<svg xmlns="http://www.w3.org/2000/svg" xmlns:xlink="http://www.w3.org/1999/xlink" id="wood" viewBox="0 0 69.264 85.237"><g transform="translate(-331 -3276.665)"><g transform="translate(331 3276.665)"><path d="M3.7,0H67.4a3.7,3.7,0,0,1,3.7,3.7V10.24a3.7,3.7,0,0,1-3.7,3.7H3.7A3.7,3.7,0,0,1,0,10.24V3.7A3.7,3.7,0,0,1,3.7,0Z" transform="translate(62.686 85.223) rotate(-151.84)" fill="#e0b699"></path><path d="M3.7,0H67.4a3.7,3.7,0,0,1,3.7,3.7V10.24a3.7,3.7,0,0,1-3.7,3.7H3.7A3.7,3.7,0,0,1,0,10.24V3.7A3.7,3.7,0,0,1,3.7,0Z" transform="translate(0 72.949) rotate(-28.16)" fill="#efd0b9"></path><path d="M49.155,42.614a21.6,21.6,0,0,1-43.135,0c0-5.95,2.231-12.569,5.265-18.7,1.1-2.246,2.32-4.462,3.585-6.5,3.659,4.67,2.291,13.178,3.406,17.849a5.132,5.132,0,0,0,6.812,3.942c3.748-1.368,3.168-5.637,2.454-8.761-1.041-4.462-5.608-8.181-5.682-17A18.667,18.667,0,0,1,27.543.059S25.7,9.34,26.977,14.294c.818,3.153,3.079,6.366,5.95,5.5,4.18-1.279-.55-6.277,2.068-10.62C41.2,17.64,49.155,30.819,49.155,42.614Z" transform="translate(7.068 -0.059)" fill="#ff501a"></path></g></g></svg>
