<svg xmlns="http://www.w3.org/2000/svg" xmlns:xlink="http://www.w3.org/1999/xlink" id="radiator-with-gas" viewBox="0 0 148.422 98.417"><g transform="translate(-1144 -518)"><g transform="translate(1144 518)"><rect width="145.944" height="95.937" rx="7.313" transform="translate(1.239 1.24)" fill="#edeff4"></rect><path d="M296.207,762.213H162.1a5.919,5.919,0,0,1-5.919-5.919v4.782a5.919,5.919,0,0,0,5.919,5.919H296.207a5.918,5.918,0,0,0,5.918-5.919v-4.782A5.918,5.918,0,0,1,296.207,762.213Z" transform="translate(-154.942 -669.817)" fill="#8d9edd"></path><path d="M295.915,747.861H161.808a7.166,7.166,0,0,1-7.158-7.158V656.6a7.166,7.166,0,0,1,7.158-7.159H295.915a7.166,7.166,0,0,1,7.158,7.159v84.1A7.166,7.166,0,0,1,295.915,747.861ZM161.808,651.924a4.685,4.685,0,0,0-4.679,4.679v84.1a4.684,4.684,0,0,0,4.679,4.679H295.915a4.684,4.684,0,0,0,4.679-4.679V656.6a4.685,4.685,0,0,0-4.679-4.679Z" transform="translate(-154.65 -649.444)" fill="none"></path><g transform="translate(8.383 8.472)"><path d="M169.909,741.386h0a4.9,4.9,0,0,1-4.9-4.9V664.813a4.9,4.9,0,0,1,4.9-4.9h0a4.9,4.9,0,0,1,4.9,4.9v71.672A4.9,4.9,0,0,1,169.909,741.386Z" transform="translate(-165.008 -659.913)" fill="#56bedb"></path><path d="M195,741.386h0a4.9,4.9,0,0,1-4.9-4.9V664.813a4.9,4.9,0,0,1,4.9-4.9h0a4.9,4.9,0,0,1,4.9,4.9v71.672A4.9,4.9,0,0,1,195,741.386Z" transform="translate(-169.793 -659.913)" fill="#56bedb"></path><path d="M220.1,741.386h0a4.9,4.9,0,0,1-4.9-4.9V664.813a4.9,4.9,0,0,1,4.9-4.9h0a4.9,4.9,0,0,1,4.9,4.9v71.672A4.9,4.9,0,0,1,220.1,741.386Z" transform="translate(-174.577 -659.913)" fill="#56bedb"></path><path d="M245.19,741.386h0a4.9,4.9,0,0,1-4.9-4.9V664.813a4.9,4.9,0,0,1,4.9-4.9h0a4.9,4.9,0,0,1,4.9,4.9v71.672A4.9,4.9,0,0,1,245.19,741.386Z" transform="translate(-179.362 -659.913)" fill="#56bedb"></path><g transform="translate(81.237 0)"><path d="M270.284,741.386h0a4.9,4.9,0,0,1-4.9-4.9V664.813a4.9,4.9,0,0,1,4.9-4.9h0a4.9,4.9,0,0,1,4.9,4.9v71.672A4.9,4.9,0,0,1,270.284,741.386Z" transform="translate(-265.384 -659.913)" fill="#56bedb"></path></g><g transform="translate(101.547 0)"><path d="M295.378,741.386h0a4.9,4.9,0,0,1-4.9-4.9V664.813a4.9,4.9,0,0,1,4.9-4.9h0a4.9,4.9,0,0,1,4.9,4.9v71.672A4.9,4.9,0,0,1,295.378,741.386Z" transform="translate(-290.478 -659.913)" fill="#56bedb"></path></g><g transform="translate(121.856)"><rect width="9.8" height="81.473" rx="4.9" fill="#56bedb"></rect></g></g></g><path d="M3.275,80.584h0A4.919,4.919,0,0,1,0,75.951V4.632A4.921,4.921,0,0,1,3.275,0Z" transform="translate(1151.641 527.013)" fill="#061dc1"></path><path d="M3.275,80.584h0A4.919,4.919,0,0,1,0,75.951V4.632A4.921,4.921,0,0,1,3.275,0Z" transform="translate(1172.383 527.013)" fill="#061dc1"></path><path d="M3.275,80.584h0A4.919,4.919,0,0,1,0,75.951V4.632A4.921,4.921,0,0,1,3.275,0Z" transform="translate(1193.125 527.013)" fill="#061dc1"></path><path d="M3.275,80.584h0A4.919,4.919,0,0,1,0,75.951V4.632A4.921,4.921,0,0,1,3.275,0Z" transform="translate(1212.774 527.013)" fill="#061dc1"></path><path d="M3.275,80.584h0A4.919,4.919,0,0,1,0,75.951V4.632A4.921,4.921,0,0,1,3.275,0Z" transform="translate(1233.516 527.013)" fill="#061dc1"></path><path d="M3.275,80.584h0A4.919,4.919,0,0,1,0,75.951V4.632A4.921,4.921,0,0,1,3.275,0Z" transform="translate(1254.257 527.013)" fill="#061dc1"></path><path d="M3.275,80.584h0A4.919,4.919,0,0,1,0,75.951V4.632A4.921,4.921,0,0,1,3.275,0Z" transform="translate(1273.907 527.013)" fill="#061dc1"></path></g></svg>
