<svg xmlns="http://www.w3.org/2000/svg" xmlns:xlink="http://www.w3.org/1999/xlink" id="gas-condensing-boiler" viewBox="0 0 108.727 124"><rect width="108.727" height="124" rx="3.81" transform="translate(0)" fill="#dce1f5"></rect><rect width="90.018" height="124" transform="translate(9.365)" fill="#edeff4"></rect><rect width="70.997" height="33.913" rx="2.06" transform="translate(18.875 78.302)" fill="#4b66cd"></rect><rect width="19.939" height="13.056" rx="0.49" transform="translate(44.404 88.978)" fill="#1d1d89"></rect><ellipse cx="5.11" cy="5.11" rx="5.11" ry="5.11" transform="translate(27.832 90.405)" fill="#fc4c38"></ellipse><ellipse cx="5.11" cy="5.11" rx="5.11" ry="5.11" transform="translate(69.496 99.046) rotate(-74.38)" fill="#fc4c38"></ellipse><path d="M49.962,35.549a13.182,13.182,0,0,1-26.342,0,26.968,26.968,0,0,1,3.212-11.388c.688-1.377,1.418-2.691,2.19-3.963,2.232,2.837,1.4,8.03,2.086,10.929a3.108,3.108,0,0,0,4.171,2.336c2.273-.834,1.94-3.421,1.5-5.319-.647-2.774-3.421-5.006-3.462-10.428a11.3,11.3,0,0,1,3.462-8.2,26.426,26.426,0,0,0-.355,8.676c.5,1.919,1.877,3.879,3.587,3.337,2.545-.772-.334-3.817,1.251-6.466C45.1,20.261,49.962,28.291,49.962,35.549Z" transform="translate(17.572 10.074)" fill="#56bedb"></path></svg>
