<svg xmlns="http://www.w3.org/2000/svg" xmlns:xlink="http://www.w3.org/1999/xlink" id="gas-stove" viewBox="0 0 96.131 124"><g transform="translate(0 0)"><rect width="96.131" height="97.341" rx="4.1" transform="translate(0 20.589)" fill="#dce0f4"></rect><path d="M13.18,57.05v2.312a3.737,3.737,0,0,0,3.757,3.778h8.444A3.757,3.757,0,0,0,29.139,59.4V57.05Z" transform="translate(-0.05 60.86)" fill="#1d1d89"></path><path d="M39.1,57.05v2.312a3.737,3.737,0,0,0,3.757,3.778h8.423A3.737,3.737,0,0,0,55.017,59.4V57.05Z" transform="translate(27.963 60.86)" fill="#1d1d89"></path><path d="M64.012,12.593V10.714A3.324,3.324,0,0,0,60.688,7.39H22.454a3.324,3.324,0,0,0-3.324,3.324v1.879Z" transform="translate(6.494 7.454)" fill="#1d1d89"></path><path d="M45.671.2H27.38a3.489,3.489,0,0,0-3.51,3.489V15.044H49.181V3.689A3.489,3.489,0,0,0,45.671.2Z" transform="translate(11.54 -0.2)" fill="#8d9edd"></path><path d="M11.17,22.91V73.366a3.209,3.209,0,0,0,3.2,3.2H86.143a3.209,3.209,0,0,0,3.2-3.2V22.91a3.17,3.17,0,0,0-.929-2.261,3.205,3.205,0,0,0-2.268-.938H14.367a3.205,3.205,0,0,0-2.268.939,3.17,3.17,0,0,0-.929,2.261Z" transform="translate(-2.189 20.897)" fill="#fff"></path><path d="M47.489,45.838a11.014,11.014,0,1,1-22.029,0A22.732,22.732,0,0,1,28.129,36.3c.582-1.14,1.189-2.256,1.844-3.324,1.868,2.426,1.165,6.72,1.723,9.146a2.62,2.62,0,0,0,3.518,1.965c1.917-.679,1.625-2.863,1.262-4.464-.534-2.3-2.863-4.173-2.887-8.661A9.486,9.486,0,0,1,36.474,24.1a21.835,21.835,0,0,0-.291,7.278c.412,1.6,1.577,3.251,3.008,2.814,2.135-.631-.291-3.227,1.043-5.483C43.437,33.1,47.489,39.821,47.489,45.838Z" transform="translate(13.242 29.467)" fill="#56bedb"></path></g></svg>
