<svg xmlns="http://www.w3.org/2000/svg" xmlns:xlink="http://www.w3.org/1999/xlink" id="gas" viewBox="0 0 52.053 77.446"><g transform="translate(-340 -2999.428)"><path d="M52.619,51.419a26.026,26.026,0,0,1-52.053,0c0-7.246,2.687-15.138,6.342-22.526,1.292-2.7,2.8-5.334,4.314-7.84,4.417,5.631,2.764,15.874,4.107,21.6.685,2.88,3.655,6.355,8.305,4.65s3.875-6.768,2.958-10.54c-1.292-5.451-6.755-9.868-6.846-20.5A22.513,22.513,0,0,1,26.593,0s-2.222,11.185-.685,17.153c.982,3.81,3.707,7.672,7.1,6.626,5.024-1.537-.672-7.569,2.48-12.787C43.035,21.325,52.619,37.212,52.619,51.419Z" transform="translate(339.434 2999.428)" fill="#56bedb"></path></g></svg>
