<svg xmlns="http://www.w3.org/2000/svg" xmlns:xlink="http://www.w3.org/1999/xlink" id="money-hand-modest" viewBox="0 0 115.92 94.026"><g transform="translate(0)"><g transform="translate(0 46.271)"><g transform="translate(0 0)"><rect width="9.15" height="34.769" transform="translate(0 4.745)" fill="#061dc1"></rect><g transform="translate(18.301 0)"><path d="M117.936,59.533a7.631,7.631,0,0,0-9.888-3.568l-3.234,1.372L80.6,67.584a13.257,13.257,0,0,1-.647,1.738A11.65,11.65,0,0,1,73.3,75.545a11.807,11.807,0,0,1-4.343.823,13.021,13.021,0,0,1-4.9-1.006L45.581,67.218l1.848-4.209h0L65.91,71.153a7.529,7.529,0,0,0,8.594-1.83,7.841,7.841,0,0,0,1.2-1.83h0a7.21,7.21,0,0,0-.554-6.862h0a7.318,7.318,0,0,0-3.234-2.745L48.076,47.18A27.864,27.864,0,0,0,21,49.742V77.924l25.689,12.81a18.68,18.68,0,0,0,15.34.366l52.118-21.777A7.278,7.278,0,0,0,117.936,59.533Z" transform="translate(-21 -44.815)" fill="#4b66cd"></path></g></g></g><ellipse cx="10.831" cy="10.807" rx="10.831" ry="10.807" transform="translate(46.475 9.195)" fill="#6ce5b6"></ellipse><ellipse cx="12.904" cy="12.877" rx="12.904" ry="12.877" transform="translate(74.091 20.277)" fill="#6ce5b6"></ellipse></g></svg>
