<svg xmlns="http://www.w3.org/2000/svg" xmlns:xlink="http://www.w3.org/1999/xlink" id="air-air-heat-pump" viewBox="0 0 122.288 93.023"><path d="M0,12.32V53.735A7.765,7.765,0,0,0,7.765,61.5H114.523a7.765,7.765,0,0,0,7.765-7.765V12.32Z" transform="translate(0 -3.597)" fill="#dce1f5"></path><rect width="48.752" height="122.288" transform="translate(0 48.752) rotate(-90)" fill="#edeff4"></rect><path d="M44.952,32.932a1.1,1.1,0,0,1-1.2-.938V21.641a1.1,1.1,0,0,1,1.2-.958h21.3a1.1,1.1,0,0,1,1.2.958V31.995a1.1,1.1,0,0,1-1.2.938Z" transform="translate(45.419 5.079)" fill="#1d1d89"></path><ellipse cx="6.074" cy="6.074" rx="6.074" ry="6.074" transform="translate(69.195 25.823)" fill="#6ce5b6"></ellipse><path d="M46.656,43.539c2.038,2.466,3.791,4.4.815,9.7a12.82,12.82,0,0,0-2.038,6.3,9.783,9.783,0,0,0,3.1,6.583,1.467,1.467,0,0,0,2.038.183,1.406,1.406,0,0,0,.163-2.038c-2.038-2.466-3.791-4.423-.795-9.7,3.934-6.991,1.121-10.191-1.121-12.881a1.447,1.447,0,0,0-2.038-.183,1.406,1.406,0,0,0-.122,2.038ZM39.482,64.308c-2.038-2.466-3.791-4.423-.795-9.7,3.954-6.991,1.141-10.191-1.121-12.881a1.447,1.447,0,0,0-2.038-.183,1.386,1.386,0,0,0-.163,2.038c2.038,2.466,3.791,4.4.795,9.7a13.044,13.044,0,0,0-2.038,6.3,9.865,9.865,0,0,0,3.1,6.583,1.467,1.467,0,0,0,2.038.183,1.386,1.386,0,0,0,.224-2.038Zm-11.271,0c-2.038-2.466-3.791-4.423-.815-9.7,3.954-6.991,1.141-10.191-1.121-12.881a1.447,1.447,0,0,0-2.038-.183,1.406,1.406,0,0,0-.163,2.038c2.038,2.466,3.791,4.4.795,9.7a13.044,13.044,0,0,0-2.038,6.3,9.865,9.865,0,0,0,3.1,6.583,1.467,1.467,0,0,0,2.038.183,1.406,1.406,0,0,0,.265-2.038Z" transform="translate(23.701 26.349)" fill="#90c73b"></path></svg>
