<svg  xmlns="http://www.w3.org/2000/svg" xmlns:xlink="http://www.w3.org/1999/xlink" id="hybrid-heat-pump" viewBox="0 0 184.338 124.406"><g id="Pompe_à_Chaleur_Hybride" data-name="Pompe à Chaleur Hybride" transform="translate(-2984 -1157)"><g id="Chaudière_fioul_autre_qu_à_condensation_" data-name="Chaudière fioul autre qu’à condensation " transform="translate(2984 1157)"><g id="Groupe_4458" data-name="Groupe 4458" transform="translate(0 0)"><g id="Chaudiere_Gaz" transform="translate(0)"><rect id="Rectangle_999" data-name="Rectangle 999" width="108.727" height="124" rx="3.81" fill="#dce1f5"></rect><rect id="Rectangle_1000" data-name="Rectangle 1000" width="90.113" height="124" transform="translate(9.317)" fill="#edeff4"></rect><rect id="Rectangle_1001" data-name="Rectangle 1001" width="71.188" height="33.742" rx="2.06" transform="translate(18.78 78.534)" fill="#4b66cd"></rect><rect id="Rectangle_1002" data-name="Rectangle 1002" width="19.838" height="12.99" rx="0.49" transform="translate(44.455 89.031)" fill="#1d1d89"></rect><ellipse id="Ellipse_139" data-name="Ellipse 139" cx="5.084" cy="5.084" rx="5.084" ry="5.084" transform="translate(27.847 90.446)" fill="#ff501a"></ellipse><ellipse id="Ellipse_140" data-name="Ellipse 140" cx="5.084" cy="5.084" rx="5.084" ry="5.084" transform="translate(69.542 99.047) rotate(-74.38)" fill="#ff501a"></ellipse></g><ellipse id="Ellipse_786" data-name="Ellipse 786" cx="11.421" cy="11.421" rx="11.421" ry="11.421" transform="translate(42.421 27.193)" fill="#99c654"></ellipse></g></g><g id="Pompe_Chaleur_Air_Eau" transform="translate(3100 1209.643)"><ellipse id="Ellipse_417" data-name="Ellipse 417" cx="31.068" cy="31.068" rx="31.068" ry="31.068" transform="translate(3.101 3.101)" fill="#fff"></ellipse><path id="Tracé_17775" data-name="Tracé 17775" d="M13.15,57.07v1.341a2.167,2.167,0,0,0,2.215,2.167h4.9a2.167,2.167,0,0,0,2.167-2.167V57.07Z" transform="translate(0.882 11.185)" fill="#1d1d89"></path><path id="Tracé_17776" data-name="Tracé 17776" d="M39.07,57.07v1.341a2.167,2.167,0,0,0,2.167,2.167H46.17a2.167,2.167,0,0,0,2.167-2.167V57.07Z" transform="translate(5.994 11.185)" fill="#1d1d89"></path><path id="Tracé_17777" data-name="Tracé 17777" d="M39.761,17.927c0,4.645-3.771,15.624-8.381,15.624S23,22.572,23,17.987a8.417,8.417,0,1,1,16.833,0Z" transform="translate(2.824 1.816)" fill="#99c654"></path><path id="Tracé_17778" data-name="Tracé 17778" d="M16.251,29.342c4.023-2.323,15.408-4.55,17.731-.515s-5.232,12.763-9.326,15.1a8.41,8.41,0,0,1-8.381-14.582Z" transform="translate(0.666 5.174)" fill="#99c654"></path><path id="Tracé_17779" data-name="Tracé 17779" d="M38.956,43.921c-4.023-2.394-11.637-11.074-9.315-15.1s13.684-1.748,17.731.515a8.41,8.41,0,0,1-8.381,14.582Z" transform="translate(4.049 5.178)" fill="#99c654"></path><path id="Tracé_17780" data-name="Tracé 17780" d="M61.448.06H9.739A8.309,8.309,0,0,0,1.43,8.369V60.078a8.381,8.381,0,0,0,8.309,8.381H61.448a8.381,8.381,0,0,0,8.321-8.381V8.369A8.381,8.381,0,0,0,61.448.06Zm-25.812,63A28.842,28.842,0,1,1,64.429,34.217,28.842,28.842,0,0,1,35.635,63.059Z" transform="translate(-1.43 -0.06)" fill="#dce1f5"></path><path id="Tracé_17781" data-name="Tracé 17781" d="M11.592,6.531a2.191,2.191,0,1,1-.659-1.566A2.191,2.191,0,0,1,11.592,6.531Z" transform="translate(-0.29 0.784)" fill="#ff501a"></path><path id="Tracé_17782" data-name="Tracé 17782" d="M53.452,6.531A2.191,2.191,0,1,1,51.261,4.34,2.191,2.191,0,0,1,53.452,6.531Z" transform="translate(7.966 0.784)" fill="#ff501a"></path><path id="Tracé_17783" data-name="Tracé 17783" d="M11.592,51.3a2.191,2.191,0,1,1-.659-1.566A2.191,2.191,0,0,1,11.592,51.3Z" transform="translate(-0.29 9.615)" fill="#ff501a"></path><path id="Tracé_17784" data-name="Tracé 17784" d="M53.452,51.3a2.191,2.191,0,1,1-2.191-2.191A2.191,2.191,0,0,1,53.452,51.3Z" transform="translate(7.966 9.615)" fill="#ff501a"></path><path id="Tracé_17785" data-name="Tracé 17785" d="M37.668,30.439a6.609,6.609,0,1,1-6.573-6.609A6.609,6.609,0,0,1,37.668,30.439Z" transform="translate(3.11 4.628)" fill="#5b7e26"></path></g></g></svg>
