<svg xmlns="http://www.w3.org/2000/svg" xmlns:xlink="http://www.w3.org/1999/xlink" id="electric-heating" viewBox="0 0 127.249 124"><g id="p_p_chauffant" transform="translate(10500.531 -2034)"><path id="Tracé_24034" data-name="Tracé 24034" d="M114.435,128.37H2.74V55.855L57.977,10.57l56.458,49.247Z" transform="translate(-10493.933 2029.63)" fill="#edeff4"></path><path id="Tracé_25574" data-name="Tracé 25574" d="M46.656,43.539c2.038,2.466,3.791,4.4.815,9.7a12.82,12.82,0,0,0-2.038,6.3,9.783,9.783,0,0,0,3.1,6.583,1.467,1.467,0,0,0,2.038.183,1.406,1.406,0,0,0,.163-2.038c-2.038-2.466-3.791-4.423-.795-9.7,3.934-6.991,1.121-10.191-1.121-12.881a1.447,1.447,0,0,0-2.038-.183,1.406,1.406,0,0,0-.122,2.038ZM39.482,64.308c-2.038-2.466-3.791-4.423-.795-9.7,3.954-6.991,1.141-10.191-1.121-12.881a1.447,1.447,0,0,0-2.038-.183,1.386,1.386,0,0,0-.163,2.038c2.038,2.466,3.791,4.4.795,9.7a13.044,13.044,0,0,0-2.038,6.3,9.865,9.865,0,0,0,3.1,6.583,1.467,1.467,0,0,0,2.038.183,1.386,1.386,0,0,0,.224-2.038Zm-11.271,0c-2.038-2.466-3.791-4.423-.815-9.7,3.954-6.991,1.141-10.191-1.121-12.881a1.447,1.447,0,0,0-2.038-.183,1.406,1.406,0,0,0-.163,2.038c2.038,2.466,3.791,4.4.795,9.7a13.044,13.044,0,0,0-2.038,6.3,9.865,9.865,0,0,0,3.1,6.583,1.467,1.467,0,0,0,2.038.183,1.406,1.406,0,0,0,.265-2.038Z" transform="translate(-10474.361 2066.348)" fill="#fb9f31"></path><path id="Tracé_25625" data-name="Tracé 25625" d="M-10492.336,2085.246h110.448l-55.105-46.958Z" fill="#dce1f5"></path><rect id="Rectangle_2411" data-name="Rectangle 2411" width="7.44" height="100.68" transform="translate(-10387.133 2150.26) rotate(90)" fill="#fb9f31"></rect><rect id="Rectangle_2463" data-name="Rectangle 2463" width="7.44" height="100.68" transform="translate(-10387.133 2083.26) rotate(90)" fill="#fb9f31"></rect><rect id="Rectangle_2305" data-name="Rectangle 2305" width="7.44" height="76" transform="translate(-10493.192 2081.64)" fill="#4b66cd"></rect><rect id="Rectangle_2306" data-name="Rectangle 2306" width="7.44" height="75" transform="translate(-10387.033 2082.64)" fill="#4b66cd"></rect><path id="Tracé_24035" data-name="Tracé 24035" d="M85.289,66.877a3.386,3.386,0,0,1-2.221-.8L22.863,15.36a3.386,3.386,0,0,1-.416-4.8,3.442,3.442,0,0,1,4.83-.416L87.482,60.854a3.414,3.414,0,0,1-2.193,6.023Z" transform="translate(-10461.977 2024.658)" fill="#4b66cd"></path><path id="Tracé_24036" data-name="Tracé 24036" d="M3.358,66.877a3.414,3.414,0,0,1-2.193-6.023L61.371,10.141a3.442,3.442,0,0,1,4.83.416,3.386,3.386,0,0,1-.416,4.8L5.635,66.072a3.386,3.386,0,0,1-2.276.8Z" transform="translate(-10500.484 2024.658)" fill="#4b66cd"></path></g></svg>
