<svg xmlns="http://www.w3.org/2000/svg" xmlns:xlink="http://www.w3.org/1999/xlink" id="air-water-heat-pump" viewBox="0 0 98.198 103.119"><ellipse cx="44.643" cy="44.643" rx="44.643" ry="44.643" transform="translate(4.456 4.456)" fill="#fff"></ellipse><path d="M13.15,57.07V59a3.114,3.114,0,0,0,3.183,3.114h7.036A3.114,3.114,0,0,0,26.483,59V57.07Z" transform="translate(7.012 41.007)" fill="#1d1d89"></path><path d="M39.07,57.07V59a3.114,3.114,0,0,0,3.114,3.114h7.088A3.114,3.114,0,0,0,52.385,59V57.07Z" transform="translate(25.684 41.007)" fill="#1d1d89"></path><path d="M47.085,21.578c0,6.675-5.419,22.451-12.042,22.451S23,28.253,23,21.664a12.094,12.094,0,1,1,24.188,0Z" transform="translate(14.108 6.791)" fill="#99c654"></path><path d="M18.085,30.542C23.865,27.2,40.226,24,43.563,29.8S36.045,48.141,30.162,51.5A12.084,12.084,0,0,1,18.119,30.542Z" transform="translate(6.223 19.056)" fill="#99c654"></path><path d="M43.214,51.482c-5.78-3.441-16.722-15.913-13.384-21.694s19.664-2.512,25.478.74A12.084,12.084,0,0,1,43.266,51.482Z" transform="translate(18.581 19.069)" fill="#99c654"></path><path d="M87.671.06h-74.3A11.939,11.939,0,0,0,1.43,12V86.3A12.043,12.043,0,0,0,13.37,98.344h74.3A12.042,12.042,0,0,0,99.627,86.3V12A12.042,12.042,0,0,0,87.671.06ZM50.58,90.585A41.443,41.443,0,1,1,91.955,49.142,41.443,41.443,0,0,1,50.58,90.585Z" transform="translate(-1.43 -0.06)" fill="#dce1f5"></path><path d="M13.506,7.489a3.148,3.148,0,1,1-.946-2.251A3.148,3.148,0,0,1,13.506,7.489Z" transform="translate(2.734 3.023)" fill="#ff501a"></path><path d="M55.366,7.488A3.148,3.148,0,1,1,52.218,4.34,3.148,3.148,0,0,1,55.366,7.488Z" transform="translate(32.887 3.023)" fill="#ff501a"></path><path d="M13.506,52.259a3.148,3.148,0,1,1-.946-2.251A3.148,3.148,0,0,1,13.506,52.259Z" transform="translate(2.734 35.273)" fill="#ff501a"></path><path d="M55.366,52.258a3.148,3.148,0,1,1-3.148-3.148A3.148,3.148,0,0,1,55.366,52.258Z" transform="translate(32.887 35.273)" fill="#ff501a"></path><path d="M43.443,33.326A9.5,9.5,0,1,1,34,23.83,9.5,9.5,0,0,1,43.443,33.326Z" transform="translate(15.152 17.063)" fill="#5b7e26"></path></svg>
