<svg xmlns="http://www.w3.org/2000/svg" xmlns:xlink="http://www.w3.org/1999/xlink" id="geothermal-heat-pump" viewBox="0 0 125.248 125.408"><path d="M50.753,78.827H13.1a8.2,8.2,0,1,1,0-16.336H28.121a4.016,4.016,0,1,0,0-7.906H13.166A8.555,8.555,0,0,1,4.3,46.678v-.356a8.555,8.555,0,0,1,8.869-7.865H29.711a2.907,2.907,0,0,0,3.158-2.573V30.092a2.092,2.092,0,1,1,4.183,0v5.836a7.07,7.07,0,0,1-7.342,6.714H13.166a4.372,4.372,0,0,0-4.685,3.911,4.372,4.372,0,0,0,4.685,3.89H28.184a8.157,8.157,0,1,1,0,16.273H13.166a4.037,4.037,0,1,0,0,7.969h37.65a2.092,2.092,0,1,1,0,4.183Z" transform="translate(4.446 30.558)" fill="#90c73b"></path><path d="M72.261,78.827H34.612a2.092,2.092,0,1,1,0-4.183h37.65a4.037,4.037,0,1,0,0-7.969H57.243a8.157,8.157,0,1,1,0-16.273H72.261a4.372,4.372,0,0,0,4.685-3.89,4.372,4.372,0,0,0-4.685-3.87H55.716a7.07,7.07,0,0,1-7.342-6.756V30.092a2.092,2.092,0,1,1,4.183,0v5.836a2.907,2.907,0,0,0,3.158,2.531H72.261a8.555,8.555,0,0,1,8.869,7.906v.356a8.555,8.555,0,0,1-8.869,7.906H57.243a4.016,4.016,0,1,0,0,7.906H72.261a8.2,8.2,0,1,1,0,16.336Z" transform="translate(35.375 30.558)" fill="#90c73b"></path><path d="M17.047,0A17.047,17.047,0,1,1,0,17.047,17.047,17.047,0,0,1,17.047,0Z" transform="translate(45.577 91.313)" fill="#90c73b"></path><path d="M36.069,47.653,27.7,56.02a.481.481,0,0,0,.356.837h3.221L28.5,64.742a.5.5,0,0,0,.816.523l8.367-8.471a.5.5,0,0,0-.356-.837H34.166l2.7-7.8a.5.5,0,0,0-.795-.5Z" transform="translate(29.943 51.901)" fill="#fff"></path><path d="M68.55,56.13H17.89V26.763L42.927,2.04,68.55,26.763Z" transform="translate(19.404 2.219)" fill="#edeff4"></path><path d="M40.074,16.681H27.524a.962.962,0,0,0-1,.858V40.149H40.911V17.538A.962.962,0,0,0,40.074,16.681Z" transform="translate(28.825 18.2)" fill="#1d1d89"></path><path d="M16.967,34.32A2.092,2.092,0,0,1,15.5,30.743L45.581.644a2.092,2.092,0,0,1,3.012,0L77.5,29.614a2.092,2.092,0,0,1-2.949,2.949L47.066,5.1,18.452,33.713A2.092,2.092,0,0,1,16.967,34.32Z" transform="translate(16.123 -0.004)" fill="#1d1d89"></path><path d="M123.216,31.853H2.152a2.092,2.092,0,0,1,0-4.183H123.216a2.092,2.092,0,0,1,0,4.183Z" transform="translate(-0.06 30.198)" fill="#1d1d89"></path></svg>
