<svg xmlns="http://www.w3.org/2000/svg" xmlns:xlink="http://www.w3.org/1999/xlink" id="house" viewBox="0 0 107.337 73.798">
<g id="Une_maison" data-name="Une maison" transform="translate(-932 -531.672)">
<g id="Maison" transform="translate(932 531.672)"><rect id="Rectangle_1511" data-name="Rectangle 1511" width="27.059" height="39.026" transform="translate(76.85 34.771)" fill="#dce1f5"></rect>
<path id="Tracé_17746" data-name="Tracé 17746" d="M74.612,82.174H2.74V40.5L38.283,10.57,74.612,40.5Z" transform="translate(2.237 -8.377)" fill="#edeff4"></path>
<path id="Tracé_17747" data-name="Tracé 17747" d="M27.276,32.61H12.809a1.179,1.179,0,0,0-1.179,1.179v31.06H28.455V33.789A1.2,1.2,0,0,0,27.276,32.61Z" transform="translate(9.226 8.949)" fill="#f6f7fc"></path><rect id="Rectangle_1512" data-name="Rectangle 1512" width="10.324" height="17.664" rx="0.66" transform="translate(50.648 46.613)" fill="#ff501a"></rect>
<rect id="Rectangle_1513" data-name="Rectangle 1513" width="10.324" height="17.664" rx="0.66" transform="translate(85.316 46.613)" fill="#ff501a"></rect>
<path id="Tracé_17748" data-name="Tracé 17748" d="M85.722,39.44,59.609,17.453a8,8,0,0,0-5.162-1.893H26.87L54.626,38.94a19.933,19.933,0,0,0,3.822,2.536H84.971a1.161,1.161,0,0,0,1.09-.768,1.143,1.143,0,0,0-.339-1.268Z" transform="translate(21.206 -4.454)" fill="#1d1d89"></path>
<path id="Tracé_17749" data-name="Tracé 17749" d="M2.144,46.364A2.2,2.2,0,0,1,.733,42.488L39.474,9.856a2.215,2.215,0,0,1,3.108.268,2.179,2.179,0,0,1-.268,3.09L3.609,45.846A2.179,2.179,0,0,1,2.144,46.364Z" transform="translate(0.047 -9.342)" fill="#1d1d89"></path>
<path id="Tracé_17750" data-name="Tracé 17750" d="M62.6,46.364a2.179,2.179,0,0,1-1.429-.518L22.427,13.214a2.179,2.179,0,0,1-.268-3.09,2.215,2.215,0,0,1,3.108-.268l38.74,32.632A2.2,2.2,0,0,1,62.6,46.364Z" transform="translate(17.094 -9.342)" fill="#1d1d89"></path>
</g><path id="Tracé_17747-2" data-name="Tracé 17747" d="M27.276,32.61H12.809a1.179,1.179,0,0,0-1.179,1.179v31.06H28.455V33.789A1.2,1.2,0,0,0,27.276,32.61Z" transform="translate(941.227 540.62)" fill="#ff501a">
</path></g>
</svg>
