<svg xmlns="http://www.w3.org/2000/svg" xmlns:xlink="http://www.w3.org/1999/xlink" id="interior-walls-insulation" viewBox="0 0 102.62 100"><g transform="translate(10500.531 -2034)"><path d="M92.817,105.311H2.74V50.177L47.286,10.57,92.817,50.177Z" transform="translate(-10495.74 2028.43)" fill="#edeff4"></path><rect width="6" height="57" transform="translate(-10493 2077)" fill="#50c49d"></rect><rect width="6" height="57" transform="translate(-10409 2077)" fill="#50c49d"></rect><path d="M72.97,55.741a2.731,2.731,0,0,1-1.791-.649l-48.553-40.9a2.731,2.731,0,0,1-.336-3.873,2.776,2.776,0,0,1,3.895-.336l48.553,40.9a2.753,2.753,0,0,1-1.768,4.858Z" transform="translate(-10473.627 2024.658)" fill="#1d1d89"></path><path d="M2.7,55.741A2.753,2.753,0,0,1,.931,50.884l48.553-40.9a2.776,2.776,0,0,1,3.895.336,2.731,2.731,0,0,1-.336,3.873L4.535,55.092a2.731,2.731,0,0,1-1.836.649Z" transform="translate(-10500.484 2024.658)" fill="#1d1d89"></path><path d="M7.747,6,0,13.317l7.747,7.315" transform="translate(-10481.5 2093.326)" fill="#50c49d"></path><path d="M0,6l7.746,7.317L0,20.633" transform="translate(-10421.802 2093.326)" fill="#50c49d"></path></g></svg>
