<svg xmlns="http://www.w3.org/2000/svg" xmlns:xlink="http://www.w3.org/1999/xlink" id="quote-signed" viewBox="0 0 96 96"><g id="Groupe_9341" data-name="Groupe 9341" transform="translate(-985 -162)"><rect id="Rectangle_3610" data-name="Rectangle 3610" width="96" height="96" transform="translate(985 162)" fill="#fff"></rect><g id="Groupe_9415" data-name="Groupe 9415" transform="translate(993.188 174.045)"><g id="Groupe_9404" data-name="Groupe 9404" transform="translate(16.58 0)"><g id="Groupe_9396" data-name="Groupe 9396" transform="translate(0)"><g id="Groupe_9395" data-name="Groupe 9395"><g id="Groupe_9394" data-name="Groupe 9394"><path id="Tracé_29284" data-name="Tracé 29284" d="M-471.869,42.633a1.559,1.559,0,0,1-1.559-1.559V-25.382a1.559,1.559,0,0,1,1.556-1.559l34.2-.055a1.559,1.559,0,0,1,1.1.457l12.833,12.833a1.559,1.559,0,0,1,.457,1.1V41.074a1.559,1.559,0,0,1-1.559,1.559Z" transform="translate(474.987 28.555)" fill="#edeff4"></path><path id="Tracé_29285" data-name="Tracé 29285" d="M-448.118-35.878l12.833,12.833V30.633H-482.31V-35.823l34.193-.055m0-3.118h-.005l-34.193.055a3.118,3.118,0,0,0-3.113,3.118V30.633a3.118,3.118,0,0,0,3.118,3.118h47.026a3.118,3.118,0,0,0,3.118-3.118V-23.045a3.118,3.118,0,0,0-.913-2.2l-12.833-12.833a3.118,3.118,0,0,0-2.2-.913Z" transform="translate(485.428 38.996)" fill="#1d1d89"></path></g></g></g><g id="Groupe_9397" data-name="Groupe 9397" transform="translate(34.555 3.118)"><path id="Tracé_29286" data-name="Tracé 29286" d="M-216.677-15h-2.755V.593h15.589V-2.163Z" transform="translate(219.432 14.996)" fill="#50c49d"></path></g><g id="Groupe_9398" data-name="Groupe 9398" transform="translate(10.912 14.809)"><path id="Tracé_29287" data-name="Tracé 29287" d="M-401.429,75h19.746v3.9h-19.746Z" transform="translate(401.429 -75.003)" fill="#dce1f5"></path></g><g id="Groupe_9399" data-name="Groupe 9399" transform="translate(10.912 22.604)"><path id="Tracé_29288" data-name="Tracé 29288" d="M-401.429,135h31.437v3.9h-31.437Z" transform="translate(401.429 -135.002)" fill="#dce1f5"></path></g><g id="Groupe_9400" data-name="Groupe 9400" transform="translate(10.912 30.398)"><path id="Tracé_29289" data-name="Tracé 29289" d="M-401.429,195h31.437v3.9h-31.437Z" transform="translate(401.429 -195.001)" fill="#dce1f5"></path></g><g id="Groupe_9401" data-name="Groupe 9401" transform="translate(10.912 38.192)"><path id="Tracé_29290" data-name="Tracé 29290" d="M-401.429,255h31.437v3.9h-31.437Z" transform="translate(401.429 -255)" fill="#dce1f5"></path></g><g id="Groupe_9402" data-name="Groupe 9402" transform="translate(10.912 45.986)"><path id="Tracé_29291" data-name="Tracé 29291" d="M-401.429,315h31.437v3.9h-31.437Z" transform="translate(401.429 -314.999)" fill="#dce1f5"></path></g><g id="Groupe_9403" data-name="Groupe 9403" transform="translate(26.631 14.809)"><path id="Tracé_29292" data-name="Tracé 29292" d="M-280.431,75h4.027v3.9h-4.027Z" transform="translate(280.431 -75.003)" fill="#dce1f5"></path><path id="Tracé_29293" data-name="Tracé 29293" d="M-280.431,135h15.719v3.9h-15.719Z" transform="translate(280.431 -127.208)" fill="#dce1f5"></path><path id="Tracé_29294" data-name="Tracé 29294" d="M-280.431,195h15.719v3.9h-15.719Z" transform="translate(280.431 -179.412)" fill="#dce1f5"></path><path id="Tracé_29295" data-name="Tracé 29295" d="M-280.431,255h15.719v3.9h-15.719Z" transform="translate(280.431 -231.617)" fill="#dce1f5"></path><path id="Tracé_29296" data-name="Tracé 29296" d="M-280.431,315h15.719v3.9h-15.719Z" transform="translate(280.431 -283.822)" fill="#dce1f5"></path></g></g><g id="Groupe_9405" data-name="Groupe 9405" transform="translate(43 56.832)"><path id="Tracé_29297" data-name="Tracé 29297" d="M-282.055,398.489h15.719v3.9h-15.719Z" transform="translate(282.055 -398.489)" fill="#50c49d"></path></g><g id="Groupe_9414" data-name="Groupe 9414" transform="translate(0 6.247)"><g id="Groupe_9406" data-name="Groupe 9406" transform="translate(0 0)"><path id="Tracé_29298" data-name="Tracé 29298" d="M-608.074,12.149l-4.984,3.055,6.109,9.968,4.341-.375,1.661-1.018,2.763-1.693,1.2-3.022L-603.089,9.1Z" transform="translate(613.058 -9.095)" fill="#2d5177"></path></g><g id="Groupe_9407" data-name="Groupe 9407" transform="translate(4.984 0)"><path id="Tracé_29299" data-name="Tracé 29299" d="M-563.6,19.064-569.7,9.1l-4.984,3.054,7.127,11.63,2.763-1.693Z" transform="translate(574.689 -9.095)" fill="#32405d"></path></g><g id="Groupe_9408" data-name="Groupe 9408" transform="translate(27.758 41.911)"><path id="Tracé_29300" data-name="Tracé 29300" d="M-397.721,332.733l-1.661,1.018,4.072,6.646,1.661-1.018,1.662-1.018-4.072-6.646Z" transform="translate(399.382 -331.715)" fill="#2d5177"></path></g><g id="Groupe_9409" data-name="Groupe 9409" transform="translate(29.454 41.911)"><path id="Tracé_29301" data-name="Tracé 29301" d="M-386.33,332.733l1.662-1.019,4.077,6.648-1.662,1.019Z" transform="translate(386.33 -331.714)" fill="#32405d"></path></g><g id="Groupe_9410" data-name="Groupe 9410" transform="translate(6.109 9.969)"><path id="Tracé_29302" data-name="Tracé 29302" d="M-561.049,88.886l-4.984,3.054,12.218,19.937,3.466.161,2.536-1.554,2.711-1.661,1.255-3.055-12.218-19.937Z" transform="translate(566.033 -85.832)" fill="#50c49d"></path></g><g id="Groupe_9411" data-name="Groupe 9411" transform="translate(11.093 9.969)"><path id="Tracé_29303" data-name="Tracé 29303" d="M-510.463,105.769l-12.218-19.937-4.984,3.054,13.236,21.6,2.711-1.661Z" transform="translate(527.665 -85.832)" fill="#50979d"></path></g><g id="Groupe_9412" data-name="Groupe 9412" transform="translate(18.326 29.906)"><path id="Tracé_29304" data-name="Tracé 29304" d="M-467,242.359l-4.984,3.054c3.09,5.141,6.4,8.033,11.468,11.255l1.661-1.018,1.661-1.018a31.716,31.716,0,0,0-4.822-15.328Z" transform="translate(471.986 -239.305)" fill="#ffe6cc"></path></g><g id="Groupe_9413" data-name="Groupe 9413" transform="translate(23.311 29.906)"><path id="Tracé_29305" data-name="Tracé 29305" d="M-428.634,239.3l-4.984,3.054,8.145,13.292,1.661-1.018a31.716,31.716,0,0,0-4.822-15.328Z" transform="translate(433.618 -239.305)" fill="#fc9"></path></g></g></g></g></svg>
