<svg xmlns="http://www.w3.org/2000/svg" xmlns:xlink="http://www.w3.org/1999/xlink" id="electric" viewBox="0 0 45.587 77.497"><g transform="translate(-343 -3138.108)"><path d="M37.639.615.617,37.237a2.13,2.13,0,0,0-.451,2.321,2.166,2.166,0,0,0,1.978,1.323H16.336L4.4,74.672a2.122,2.122,0,0,0,.89,2.5,2.168,2.168,0,0,0,2.658-.288L44.97,40.261a2.13,2.13,0,0,0,.451-2.321,2.166,2.166,0,0,0-1.978-1.323H29.238L41.187,2.825a2.122,2.122,0,0,0-.89-2.5A2.168,2.168,0,0,0,37.639.615Z" transform="translate(343 3138.108)" fill="#fb9f31"></path></g></svg>
