<svg xmlns="http://www.w3.org/2000/svg" xmlns:xlink="http://www.w3.org/1999/xlink" id="reflection-works" viewBox="0 0 96 96"><g id="Groupe_9339" data-name="Groupe 9339" transform="translate(-460 -162)"><g id="Groupe_9360" data-name="Groupe 9360" transform="translate(-136 -12)"><rect id="Rectangle_3608" data-name="Rectangle 3608" width="96" height="96" transform="translate(596 174)" fill="#fff"></rect><g id="Groupe_9350" data-name="Groupe 9350" transform="translate(555.739 177.447)"><path id="Tracé_29230" data-name="Tracé 29230" d="M218.54,463.146l6.407-1.742,6.407,1.742v.534a6.407,6.407,0,0,1-12.814,0Z" transform="translate(-136.914 -382.219)" fill="#1d1d89"></path><path id="Tracé_29231" data-name="Tracé 29231" d="M218.381,378.724H207.2a2.284,2.284,0,0,1-2.284-2.284V361.235l8.745-1.742,7,1.742v15.206A2.284,2.284,0,0,1,218.381,378.724Z" transform="translate(-125.629 -297.798)" fill="#c4e2ff"></path><path id="Tracé_29232" data-name="Tracé 29232" d="M268.4,365.351v15.942a2.284,2.284,0,0,1-2.284,2.284h4.7a2.284,2.284,0,0,0,2.284-2.284V366.087Z" transform="translate(-176.328 -302.651)" fill="#8ac9fe"></path><g id="Groupe_9350-2" data-name="Groupe 9350" transform="translate(86.748)"><path id="Tracé_29233" data-name="Tracé 29233" d="M249.7,8.475a1.306,1.306,0,0,1-1.306-1.306V1.306a1.306,1.306,0,0,1,2.613,0V7.169A1.306,1.306,0,0,1,249.7,8.475Z" transform="translate(-248.389)" fill="#1d1d89"></path></g><g id="Groupe_9351" data-name="Groupe 9351" transform="translate(106.281 9.808)"><path id="Tracé_29234" data-name="Tracé 29234" d="M363.513,63.909a1.306,1.306,0,0,1-.924-2.23l4.146-4.146a1.306,1.306,0,0,1,1.847,1.847l-4.146,4.146a1.3,1.3,0,0,1-.924.383Z" transform="translate(-362.207 -57.151)" fill="#1d1d89"></path></g><g id="Groupe_9352" data-name="Groupe 9352" transform="translate(63.069 53.021)"><path id="Tracé_29235" data-name="Tracé 29235" d="M111.719,315.705a1.306,1.306,0,0,1-.924-2.23l4.146-4.146a1.306,1.306,0,0,1,1.847,1.847l-4.146,4.146A1.3,1.3,0,0,1,111.719,315.705Z" transform="translate(-110.412 -308.947)" fill="#1d1d89"></path></g><g id="Groupe_9353" data-name="Groupe 9353" transform="translate(63.069 9.808)"><path id="Tracé_29236" data-name="Tracé 29236" d="M115.865,63.909a1.3,1.3,0,0,1-.924-.383L110.8,59.381a1.306,1.306,0,1,1,1.847-1.847l4.146,4.146a1.306,1.306,0,0,1-.924,2.23Z" transform="translate(-110.413 -57.151)" fill="#1d1d89"></path></g><g id="Groupe_9354" data-name="Groupe 9354" transform="translate(106.281 53.02)"><path id="Tracé_29237" data-name="Tracé 29237" d="M367.659,315.7a1.3,1.3,0,0,1-.924-.383l-4.146-4.146a1.306,1.306,0,0,1,1.847-1.847l4.146,4.146a1.306,1.306,0,0,1-.924,2.23Z" transform="translate(-362.207 -308.947)" fill="#1d1d89"></path></g><g id="Groupe_9355" data-name="Groupe 9355" transform="translate(53.261 33.487)"><path id="Tracé_29238" data-name="Tracé 29238" d="M60.43,197.74H54.567a1.306,1.306,0,1,1,0-2.613H60.43a1.306,1.306,0,1,1,0,2.613Z" transform="translate(-53.261 -195.127)" fill="#1d1d89"></path></g><g id="Groupe_9356" data-name="Groupe 9356" transform="translate(114.372 33.487)"><path id="Tracé_29239" data-name="Tracé 29239" d="M416.521,197.74h-5.863a1.306,1.306,0,1,1,0-2.613h5.863a1.306,1.306,0,1,1,0,2.613Z" transform="translate(-409.352 -195.127)" fill="#1d1d89"></path></g><path id="Tracé_29240" data-name="Tracé 29240" d="M167.771,93.652c0-12.386-8.221-22.444-20.571-22.6a22.6,22.6,0,0,0-15.37,39.427,19.833,19.833,0,0,1,6.266,11.512l.051.3h17.49l.043-.256c.754-4.508,1.312-8.59,4.693-11.666a22.537,22.537,0,0,0,7.4-16.722Z" transform="translate(-58.858 -58.859)" fill="#edeff4"></path><g id="Groupe_9357" data-name="Groupe 9357" transform="translate(76.247 67.96)"><path id="Tracé_29241" data-name="Tracé 29241" d="M209.507,398.614h-21a1.306,1.306,0,1,1,0-2.613h21a1.306,1.306,0,1,1,0,2.613Z" transform="translate(-187.198 -396.001)" fill="#1d1d89"></path></g><g id="Groupe_9358" data-name="Groupe 9358" transform="translate(76.247 73.79)"><path id="Tracé_29242" data-name="Tracé 29242" d="M209.507,432.582h-21a1.306,1.306,0,1,1,0-2.612h21a1.306,1.306,0,1,1,0,2.612Z" transform="translate(-187.198 -429.97)" fill="#1d1d89"></path></g><path id="Tracé_29243" data-name="Tracé 29243" d="M245.047,71.055a22.3,22.3,0,0,0-2.616.123,22.6,22.6,0,0,1,12.827,39.2,20.332,20.332,0,0,0-6.435,11.666l-.043.256h4.7l.043-.256a20.333,20.333,0,0,1,6.435-11.666,22.6,22.6,0,0,0-14.914-39.32Z" transform="translate(-156.705 -58.859)" fill="#dce1f5"></path><g id="Groupe_9359" data-name="Groupe 9359" transform="translate(77.84 21.178)"><path id="Tracé_29244" data-name="Tracé 29244" d="M210.857,132.475c0-2.017-1.446-3.2-3.989-3.2-2.586,0-4.3,1.533-5.217,3.9l-5.172-2.98a11.035,11.035,0,0,1,10.608-6.8c4.952,0,9.819,2.982,9.819,8.636,0,6.577-7.365,8.5-7.365,12.362h-6.048C203.494,138.612,210.857,136.815,210.857,132.475Zm-8.065,19.067a3.725,3.725,0,1,1,3.725,3.726A3.721,3.721,0,0,1,202.792,151.542Z" transform="translate(-196.48 -123.4)" fill="#50c49d"></path></g></g></g></g></svg>
