<svg xmlns="http://www.w3.org/2000/svg" xmlns:xlink="http://www.w3.org/1999/xlink" id="artisan" viewBox="0 0 96 96"><g id="Groupe_9342" data-name="Groupe 9342" transform="translate(-655 -162)"><rect id="Rectangle_3608" data-name="Rectangle 3608" width="96" height="96" transform="translate(655 162)" fill="#fff"></rect><g id="Groupe_9419" data-name="Groupe 9419" transform="translate(80.845 97.71)"><g id="Groupe_7759" data-name="Groupe 7759" transform="translate(590.155 84.429)"><circle id="Ellipse_787" data-name="Ellipse 787" cx="18.742" cy="18.742" r="18.742" transform="translate(12.876)" fill="#50c49d"></circle><path id="Tracé_25659" data-name="Tracé 25659" d="M653.058,369.175h0a31.306,31.306,0,0,0-31.283-31.293,31.659,31.659,0,0,0-31.62,31.285h58.633Z" transform="translate(-590.155 -300.407)" fill="#50c49d"></path></g><g id="Groupe_9418" data-name="Groupe 9418" transform="translate(598.337 73.613)"><path id="Tracé_29306" data-name="Tracé 29306" d="M681.832,97.891h-2.858v-2.8a18.878,18.878,0,0,0-7.162-14.817V75.379h-5.126v1.989a18.829,18.829,0,0,0-5.741-1.176V73.613h-5.126v2.579a18.828,18.828,0,0,0-5.741,1.176V75.379H644.95v4.893a18.879,18.879,0,0,0-7.162,14.817v2.8H634.93v3.691h.027a.271.271,0,0,0-.027.107c0,1.306,10.5,3.739,23.451,3.739s23.451-2.432,23.451-3.739a.267.267,0,0,0-.027-.107h.027Z" transform="translate(-634.93 -73.613)" fill="#edeff4"></path><g id="Groupe_9417" data-name="Groupe 9417" transform="translate(0 0)"><path id="Tracé_29307" data-name="Tracé 29307" d="M681.832,206.471h-46.9v3.691h.027a.271.271,0,0,0-.027.107c0,1.306,10.5,3.739,23.451,3.739s23.451-2.432,23.451-3.739a.268.268,0,0,0-.027-.107h.027Z" transform="translate(-634.93 -182.193)" fill="#dce1f5"></path><path id="Tracé_29308" data-name="Tracé 29308" d="M749.239,73.613V91.247a1.835,1.835,0,0,0,1.835,1.834h1.457a1.835,1.835,0,0,0,1.835-1.834V73.613Z" transform="translate(-728.351 -73.613)" fill="#dce1f5"></path><path id="Tracé_29309" data-name="Tracé 29309" d="M813.839,83.276h-5.126V99.144a1.835,1.835,0,0,0,1.835,1.834H812a1.835,1.835,0,0,0,1.835-1.834Z" transform="translate(-776.957 -81.51)" fill="#dce1f5"></path><path id="Tracé_29310" data-name="Tracé 29310" d="M689.764,83.276V99.144a1.835,1.835,0,0,0,1.835,1.834h1.457a1.835,1.835,0,0,0,1.835-1.834V83.276Z" transform="translate(-679.744 -81.51)" fill="#dce1f5"></path></g></g><path id="Tracé_29311" data-name="Tracé 29311" d="M695.864,354.089v26.926H657.85V354.162l3.733-2.434v10.2h30.163v-10.2Z" transform="translate(-55.325 -227.294)" fill="#1d1d89"></path><rect id="Rectangle_3611" data-name="Rectangle 3611" width="2.979" height="2.643" transform="translate(603.23 136.114)" fill="#dce1f5"></rect><rect id="Rectangle_3612" data-name="Rectangle 3612" width="2.979" height="2.643" transform="translate(636.437 136.114)" fill="#dce1f5"></rect></g></g></svg>
