<svg xmlns="http://www.w3.org/2000/svg" xmlns:xlink="http://www.w3.org/1999/xlink" id="no" viewBox="0 0 97.413 131.315"><g transform="translate(24.824 27.899)"><g transform="translate(0 0)"><path d="M10.533,1.951,24.915,16.343,39.307,1.951c5.628-5.628,14.249,2.841,8.541,8.549L33.465,24.883,47.848,39.274c5.619,5.611-2.93,14.16-8.541,8.54L24.915,33.432,10.533,47.815c-5.619,5.619-14.16-2.93-8.549-8.54L16.375,24.883,1.983,10.5C-3.627,4.881,4.913-3.668,10.533,1.951Z" transform="translate(-0.15 -0.1)" fill="#ff501a"></path></g></g><path d="M15.161,103.732C4.839,103.732.7,99.6.7,89.278V14.6C.7,4.28,4.839.145,15.161.145H83.654C93.98.145,98.115,4.279,98.115,14.6V89.278c0,10.32-4.136,14.454-14.462,14.454H73.208V131.46L45.463,103.732Zm54.033,18.045V99.72H83.654c8.109,0,10.448-2.338,10.448-10.443V14.6c0-8.1-2.339-10.443-10.448-10.443H15.161C7.055,4.156,4.715,6.5,4.715,14.6V89.278c0,8.1,2.34,10.443,10.446,10.443H47.125Z" transform="translate(-0.702 -0.145)" fill="#061dc1"></path></svg>
