<svg xmlns="http://www.w3.org/2000/svg" xmlns:xlink="http://www.w3.org/1999/xlink" id="oil-condensing-boiler" viewBox="0 0 108.727 124"><g transform="translate(0 0)"><rect width="108.727" height="124" rx="3.81" transform="translate(0)" fill="#dce1f5"></rect><rect width="90.056" height="124" transform="translate(9.346)" fill="#edeff4"></rect><rect width="71.073" height="33.845" rx="2.06" transform="translate(18.837 78.394)" fill="#4b66cd"></rect><rect width="19.899" height="13.03" rx="0.49" transform="translate(44.424 88.999)" fill="#1d1d89"></rect><ellipse cx="5.1" cy="5.1" rx="5.1" ry="5.1" transform="translate(27.838 90.421)" fill="#ff501a"></ellipse><ellipse cx="5.1" cy="5.1" rx="5.1" ry="5.1" transform="translate(69.514 99.046) rotate(-74.38)" fill="#ff501a"></ellipse></g><path d="M23.217,21.7c0,7.038-4.615,12.694-11.609,12.694S0,28.741,0,21.7C0,16.173,6.735,5.2,10.105.749a1.883,1.883,0,0,1,3.007,0C16.477,5.218,23.217,16.231,23.217,21.7Z" transform="translate(42.871 23.218)" fill="#3d4c66"></path></svg>
