<svg xmlns="http://www.w3.org/2000/svg" xmlns:xlink="http://www.w3.org/1999/xlink" id="oil-stove" viewBox="0 0 96.131 124"><g transform="translate(0 0)"><g transform="translate(0 0)"><rect width="96.131" height="97.145" rx="4.1" transform="translate(0 20.797)" fill="#dce0f4"></rect><path d="M13.18,57.05v2.308a3.729,3.729,0,0,0,3.75,3.77h8.427a3.75,3.75,0,0,0,3.75-3.729V57.05Z" transform="translate(-0.076 60.872)" fill="#1d1d89"></path><path d="M39.1,57.05v2.308a3.729,3.729,0,0,0,3.75,3.77h8.406A3.729,3.729,0,0,0,54.985,59.4V57.05Z" transform="translate(28.021 60.872)" fill="#1d1d89"></path><path d="M63.922,12.582V10.707A3.317,3.317,0,0,0,60.6,7.39H22.447a3.317,3.317,0,0,0-3.317,3.317v1.875Z" transform="translate(6.539 7.424)" fill="#1d1d89"></path><path d="M45.627.2H27.373a3.482,3.482,0,0,0-3.5,3.482V15.014H49.13V3.682A3.482,3.482,0,0,0,45.627.2Z" transform="translate(11.565 -0.2)" fill="#8d9edd"></path><path d="M11.17,22.9V73.258a3.206,3.206,0,0,0,3.2,3.194h71.81a3.206,3.206,0,0,0,3.2-3.194V22.9a3.16,3.16,0,0,0-.929-2.257,3.211,3.211,0,0,0-2.269-.937H14.368a3.211,3.211,0,0,0-2.269.937A3.16,3.16,0,0,0,11.17,22.9Z" transform="translate(-2.208 20.966)" fill="#fff"></path></g></g><path d="M21.088,19.712c0,6.392-4.191,11.529-10.544,11.529S0,26.1,0,19.712C0,14.69,6.117,4.724,9.178.681a1.71,1.71,0,0,1,2.731,0C14.966,4.739,21.088,14.742,21.088,19.712Z" transform="translate(38.344 54.654)" fill="#3d4c66"></path></svg>
