<svg xmlns="http://www.w3.org/2000/svg" xmlns:xlink="http://www.w3.org/1999/xlink" id="quote" viewBox="0 0 96 96"><g id="Groupe_9340" data-name="Groupe 9340" transform="translate(-814 -162)"><rect id="Rectangle_3609" data-name="Rectangle 3609" width="96" height="96" transform="translate(814 162)" fill="#fff"></rect><g id="Groupe_9416" data-name="Groupe 9416" transform="translate(825 167.728)"><g id="Groupe_9371" data-name="Groupe 9371" transform="translate(10.291)"><g id="Groupe_9363" data-name="Groupe 9363"><g id="Groupe_9362" data-name="Groupe 9362"><g id="Groupe_9361" data-name="Groupe 9361"><path id="Tracé_29245" data-name="Tracé 29245" d="M-1260.114-21.307a1.559,1.559,0,0,1-1.559-1.559V-89.322a1.559,1.559,0,0,1,1.557-1.559l34.195-.055a1.559,1.559,0,0,1,1.1.457l12.833,12.833a1.559,1.559,0,0,1,.456,1.1v53.678a1.559,1.559,0,0,1-1.559,1.559Z" transform="translate(1263.232 92.495)" fill="#edeff4"></path><path id="Tracé_29246" data-name="Tracé 29246" d="M-1236.363-99.818l12.833,12.833v53.678h-47.026V-99.763l34.193-.055m0-3.118h-.005l-34.192.055a3.118,3.118,0,0,0-3.113,3.118v66.456a3.118,3.118,0,0,0,3.118,3.118h47.026a3.118,3.118,0,0,0,3.118-3.118V-86.985a3.119,3.119,0,0,0-.913-2.2l-12.833-12.833a3.119,3.119,0,0,0-2.2-.913Z" transform="translate(1273.673 102.936)" fill="#1d1d89"></path></g></g></g><g id="Groupe_9364" data-name="Groupe 9364" transform="translate(34.555 3.118)"><path id="Tracé_29247" data-name="Tracé 29247" d="M-1004.921-78.936h-2.755v15.589h15.589V-66.1Z" transform="translate(1007.676 78.936)" fill="#50c49d"></path></g><g id="Groupe_9365" data-name="Groupe 9365" transform="translate(10.912 14.809)"><path id="Tracé_29248" data-name="Tracé 29248" d="M-1189.674,11.063h19.746v3.9h-19.746Z" transform="translate(1189.674 -11.063)" fill="#dce1f5"></path></g><g id="Groupe_9366" data-name="Groupe 9366" transform="translate(10.912 22.604)"><path id="Tracé_29249" data-name="Tracé 29249" d="M-1189.674,71.062h31.437v3.9h-31.437Z" transform="translate(1189.674 -71.062)" fill="#dce1f5"></path></g><g id="Groupe_9367" data-name="Groupe 9367" transform="translate(10.912 30.398)"><path id="Tracé_29250" data-name="Tracé 29250" d="M-1189.674,131.061h31.437v3.9h-31.437Z" transform="translate(1189.674 -131.061)" fill="#dce1f5"></path></g><g id="Groupe_9368" data-name="Groupe 9368" transform="translate(10.912 38.192)"><path id="Tracé_29251" data-name="Tracé 29251" d="M-1189.674,191.06h31.437v3.9h-31.437Z" transform="translate(1189.674 -191.06)" fill="#dce1f5"></path></g><g id="Groupe_9369" data-name="Groupe 9369" transform="translate(10.912 45.986)"><path id="Tracé_29252" data-name="Tracé 29252" d="M-1189.674,251.059h31.437v3.9h-31.437Z" transform="translate(1189.674 -251.059)" fill="#dce1f5"></path></g><g id="Groupe_9370" data-name="Groupe 9370" transform="translate(26.631 14.809)"><path id="Tracé_29253" data-name="Tracé 29253" d="M-1068.676,11.063h4.027v3.9h-4.027Z" transform="translate(1068.676 -11.063)" fill="#dce1f5"></path><path id="Tracé_29254" data-name="Tracé 29254" d="M-1068.676,71.062h15.719v3.9h-15.719Z" transform="translate(1068.676 -63.268)" fill="#dce1f5"></path><path id="Tracé_29255" data-name="Tracé 29255" d="M-1068.676,131.061h15.719v3.9h-15.719Z" transform="translate(1068.676 -115.472)" fill="#dce1f5"></path><path id="Tracé_29256" data-name="Tracé 29256" d="M-1068.676,191.06h15.719v3.9h-15.719Z" transform="translate(1068.676 -167.677)" fill="#dce1f5"></path><path id="Tracé_29257" data-name="Tracé 29257" d="M-1068.676,251.059h15.719v3.9h-15.719Z" transform="translate(1068.676 -219.882)" fill="#dce1f5"></path></g></g><g id="Groupe_9382" data-name="Groupe 9382" transform="translate(0 12.534)"><g id="Groupe_9374" data-name="Groupe 9374" transform="translate(0 0)"><g id="Groupe_9373" data-name="Groupe 9373"><g id="Groupe_9372" data-name="Groupe 9372"><path id="Tracé_29258" data-name="Tracé 29258" d="M-1339.333,75.18a1.559,1.559,0,0,1-1.559-1.559V7.165a1.559,1.559,0,0,1,1.557-1.559l34.2-.055a1.559,1.559,0,0,1,1.1.456l12.833,12.833a1.559,1.559,0,0,1,.457,1.1V73.621a1.559,1.559,0,0,1-1.559,1.559Z" transform="translate(1342.451 -3.992)" fill="#edeff4"></path><path id="Tracé_29259" data-name="Tracé 29259" d="M-1315.582-3.331-1302.749,9.5V63.18h-47.026V-3.276l34.193-.055m0-3.118h-.005l-34.193.055a3.118,3.118,0,0,0-3.113,3.118V63.18a3.118,3.118,0,0,0,3.118,3.118h47.026a3.118,3.118,0,0,0,3.118-3.118V9.5a3.118,3.118,0,0,0-.913-2.2l-12.833-12.833a3.118,3.118,0,0,0-2.2-.913Z" transform="translate(1352.892 6.449)" fill="#1d1d89"></path></g></g></g><g id="Groupe_9375" data-name="Groupe 9375" transform="translate(34.555 3.118)"><path id="Tracé_29260" data-name="Tracé 29260" d="M-1084.141,17.551h-2.755V33.14h15.589V30.384Z" transform="translate(1086.896 -17.551)" fill="#50c49d"></path></g><g id="Groupe_9376" data-name="Groupe 9376" transform="translate(10.912 14.809)"><path id="Tracé_29261" data-name="Tracé 29261" d="M-1268.893,107.549h19.745v3.9h-19.745Z" transform="translate(1268.893 -107.549)" fill="#dce1f5"></path></g><g id="Groupe_9377" data-name="Groupe 9377" transform="translate(10.912 22.603)"><path id="Tracé_29262" data-name="Tracé 29262" d="M-1268.893,167.548h31.437v3.9h-31.437Z" transform="translate(1268.893 -167.548)" fill="#dce1f5"></path></g><g id="Groupe_9378" data-name="Groupe 9378" transform="translate(10.912 30.398)"><path id="Tracé_29263" data-name="Tracé 29263" d="M-1268.893,227.547h31.437v3.9h-31.437Z" transform="translate(1268.893 -227.547)" fill="#dce1f5"></path></g><g id="Groupe_9379" data-name="Groupe 9379" transform="translate(10.912 38.192)"><path id="Tracé_29264" data-name="Tracé 29264" d="M-1268.893,287.546h31.437v3.9h-31.437Z" transform="translate(1268.893 -287.546)" fill="#dce1f5"></path></g><g id="Groupe_9380" data-name="Groupe 9380" transform="translate(10.912 45.986)"><path id="Tracé_29265" data-name="Tracé 29265" d="M-1268.893,347.545h31.437v3.9h-31.437Z" transform="translate(1268.893 -347.545)" fill="#dce1f5"></path></g><g id="Groupe_9381" data-name="Groupe 9381" transform="translate(26.631 14.809)"><path id="Tracé_29266" data-name="Tracé 29266" d="M-1147.9,107.549h4.027v3.9h-4.027Z" transform="translate(1147.895 -107.549)" fill="#dce1f5"></path><path id="Tracé_29267" data-name="Tracé 29267" d="M-1147.9,167.548h15.719v3.9H-1147.9Z" transform="translate(1147.895 -159.754)" fill="#dce1f5"></path><path id="Tracé_29268" data-name="Tracé 29268" d="M-1147.9,227.547h15.719v3.9H-1147.9Z" transform="translate(1147.895 -211.958)" fill="#dce1f5"></path><path id="Tracé_29269" data-name="Tracé 29269" d="M-1147.9,287.546h15.719v3.9H-1147.9Z" transform="translate(1147.895 -264.163)" fill="#dce1f5"></path><path id="Tracé_29270" data-name="Tracé 29270" d="M-1147.9,347.545h15.719v3.9H-1147.9Z" transform="translate(1147.895 -316.368)" fill="#dce1f5"></path></g></g><g id="Groupe_9393" data-name="Groupe 9393" transform="translate(21.072 8.306)"><g id="Groupe_9385" data-name="Groupe 9385"><g id="Groupe_9384" data-name="Groupe 9384"><g id="Groupe_9383" data-name="Groupe 9383"><path id="Tracé_29271" data-name="Tracé 29271" d="M-1177.122,42.633a1.559,1.559,0,0,1-1.559-1.559V-25.382a1.559,1.559,0,0,1,1.556-1.559l34.2-.055a1.559,1.559,0,0,1,1.1.457l12.833,12.833a1.559,1.559,0,0,1,.457,1.1V41.074a1.559,1.559,0,0,1-1.559,1.559Z" transform="translate(1180.24 28.555)" fill="#edeff4"></path><path id="Tracé_29272" data-name="Tracé 29272" d="M-1153.371-35.878l12.833,12.833V30.633h-47.026V-35.823l34.193-.055m0-3.118h-.005l-34.193.055a3.118,3.118,0,0,0-3.113,3.118V30.633a3.118,3.118,0,0,0,3.118,3.118h47.026a3.118,3.118,0,0,0,3.118-3.118V-23.045a3.118,3.118,0,0,0-.913-2.2l-12.833-12.833a3.118,3.118,0,0,0-2.2-.913Z" transform="translate(1190.681 38.996)" fill="#1d1d89"></path></g></g></g><g id="Groupe_9386" data-name="Groupe 9386" transform="translate(34.555 3.118)"><path id="Tracé_29273" data-name="Tracé 29273" d="M-921.93-15h-2.755V.593H-909.1V-2.163Z" transform="translate(924.685 14.996)" fill="#50c49d"></path></g><g id="Groupe_9387" data-name="Groupe 9387" transform="translate(10.912 14.809)"><path id="Tracé_29274" data-name="Tracé 29274" d="M-1106.682,75h19.746v3.9h-19.746Z" transform="translate(1106.682 -75.003)" fill="#dce1f5"></path></g><g id="Groupe_9388" data-name="Groupe 9388" transform="translate(10.912 22.604)"><path id="Tracé_29275" data-name="Tracé 29275" d="M-1106.682,135h31.437v3.9h-31.437Z" transform="translate(1106.682 -135.002)" fill="#dce1f5"></path></g><g id="Groupe_9389" data-name="Groupe 9389" transform="translate(10.912 30.398)"><path id="Tracé_29276" data-name="Tracé 29276" d="M-1106.682,195h31.437v3.9h-31.437Z" transform="translate(1106.682 -195.001)" fill="#dce1f5"></path></g><g id="Groupe_9390" data-name="Groupe 9390" transform="translate(10.912 38.192)"><path id="Tracé_29277" data-name="Tracé 29277" d="M-1106.682,255h31.437v3.9h-31.437Z" transform="translate(1106.682 -255)" fill="#dce1f5"></path></g><g id="Groupe_9391" data-name="Groupe 9391" transform="translate(10.912 45.986)"><path id="Tracé_29278" data-name="Tracé 29278" d="M-1106.682,315h31.437v3.9h-31.437Z" transform="translate(1106.682 -314.999)" fill="#dce1f5"></path></g><g id="Groupe_9392" data-name="Groupe 9392" transform="translate(26.631 14.809)"><path id="Tracé_29279" data-name="Tracé 29279" d="M-985.684,75h4.027v3.9h-4.027Z" transform="translate(985.684 -75.003)" fill="#dce1f5"></path><path id="Tracé_29280" data-name="Tracé 29280" d="M-985.684,135h15.719v3.9h-15.719Z" transform="translate(985.684 -127.208)" fill="#dce1f5"></path><path id="Tracé_29281" data-name="Tracé 29281" d="M-985.684,195h15.719v3.9h-15.719Z" transform="translate(985.684 -179.412)" fill="#dce1f5"></path><path id="Tracé_29282" data-name="Tracé 29282" d="M-985.684,255h15.719v3.9h-15.719Z" transform="translate(985.684 -231.617)" fill="#dce1f5"></path><path id="Tracé_29283" data-name="Tracé 29283" d="M-985.684,315h15.719v3.9h-15.719Z" transform="translate(985.684 -283.822)" fill="#dce1f5"></path></g></g></g></g></svg>
