<svg xmlns="http://www.w3.org/2000/svg" xmlns:xlink="http://www.w3.org/1999/xlink" id="heatpump" viewBox="0 0 82.903 75.587"><g transform="translate(-324 -3423.159)"><g transform="translate(324 3423.159)"><path d="M45.547,17.1c0,8.968-7.265,30.155-16.247,30.155S13.039,26.072,13.039,17.1a16.261,16.261,0,1,1,32.508,0Z" transform="translate(12.15 -0.369)" fill="#a4cb68"></path><path d="M8.16,26.3c7.777-4.484,29.754-8.788,34.251-1.01S32.185,49.96,24.421,54.444A16.254,16.254,0,1,1,8.16,26.3Z" transform="translate(-0.034 18.961)" fill="#a4cb68"></path><path d="M39.353,54.444C31.576,49.96,16.865,33.063,21.363,25.286S47.822,21.812,55.6,26.3A16.25,16.25,0,1,1,39.353,54.444Z" transform="translate(19.174 18.961)" fill="#a4cb68"></path><path d="M40.362,30.473a12.759,12.759,0,1,1-3.727-9.04,12.759,12.759,0,0,1,3.727,9.04Z" transform="translate(13.848 15.863)" fill="#666"></path></g></g></svg>
