<svg xmlns="http://www.w3.org/2000/svg" xmlns:xlink="http://www.w3.org/1999/xlink" id="doesntknow" viewBox="0 0 56.171 93.46"><g transform="translate(-1075.955 -792.634)"><g transform="translate(1075.955 792.634)"><g><path d="M1093.811,840.689a7.054,7.054,0,0,1,5.332-2.209q8.184,0,13.144-3.915t4.96-12.126a13.739,13.739,0,0,0-4.465-10.483,15.722,15.722,0,0,0-11.159-4.167,17.475,17.475,0,0,0-12.029,4.673,9.043,9.043,0,0,1-6.2,2.778,6.494,6.494,0,0,1-4.217-1.515,7.11,7.11,0,0,1-.867-11.24,31.627,31.627,0,0,1,10.478-7.262,32.111,32.111,0,0,1,12.834-2.589A30.777,30.777,0,0,1,1117,796.549a29.485,29.485,0,0,1,11.035,10.8,29,29,0,0,1,4.092,15.093q0,12.126-6.819,19.2t-18.1,8.842c-.415.169-.62.379-.62.632v4.673a7.649,7.649,0,0,1-2.108,5.493,7.536,7.536,0,0,1-10.664,0,7.637,7.637,0,0,1-2.108-5.493v-9.6A7.649,7.649,0,0,1,1093.811,840.689ZM1093,884.136a7.687,7.687,0,0,1-1.921-5.621v-2.146a7.693,7.693,0,0,1,1.921-5.621,7.391,7.391,0,0,1,5.518-1.958h1.612a7.394,7.394,0,0,1,5.518,1.958,7.7,7.7,0,0,1,1.922,5.621v2.146a7.691,7.691,0,0,1-1.922,5.621,7.386,7.386,0,0,1-5.518,1.958h-1.612A7.383,7.383,0,0,1,1093,884.136Z" transform="translate(-1075.955 -792.634)" fill="#4b66cd"></path></g></g></g></svg>

