<svg xmlns="http://www.w3.org/2000/svg" xmlns:xlink="http://www.w3.org/1999/xlink" id="roof-terrace" viewBox="0 0 140.251 78"><g transform="translate(0 0)"><g id="Toit_terrase_" data-name="Toit terrase " transform="translate(-2967 -2039.465)"><g id="Groupe_7441" data-name="Groupe 7441" transform="translate(2969.746 2044.885)"><g id="Groupe_7431" data-name="Groupe 7431" transform="translate(0 0)"><g id="Maison"><rect id="Rectangle_1511" data-name="Rectangle 1511" width="36.674" height="69.008" transform="translate(97.41 3.571)" fill="#dce1f5"></rect><path id="Tracé_17746" data-name="Tracé 17746" d="M100.15,123.713H2.74V51.133h97.41Z" transform="translate(-2.74 -51.133)" fill="#edeff4"></path></g></g></g><path id="Tracé_24052" data-name="Tracé 24052" d="M2.144,0H138.107c1.184,0,2.144.676,2.144,1.51V9.751c0,.834-.96,1.51-2.144,1.51H2.144C.96,11.261,0,10.585,0,9.751V1.51C0,.676.96,0,2.144,0Z" transform="translate(2967 2039.465)" fill="#50c49d"></path><path id="Tracé_24053" data-name="Tracé 24053" d="M32.656,44.791H19.337a1,1,0,0,0-1.087.922V69.833H33.742V45.713a1,1,0,0,0-1.087-.922Z" transform="translate(2988.797 2047.415)" fill="#1d1d89"></path></g></g></svg>
