<svg xmlns="http://www.w3.org/2000/svg" xmlns:xlink="http://www.w3.org/1999/xlink" id="combined-solar-system" viewBox="0 0 153.472 116.089"><g transform="translate(-2919 -3141)"><g transform="translate(2919 3141)"><g><g transform="translate(0 22.383)"><g><rect width="34.354" height="49.554" transform="translate(97.568 44.152)" fill="#dce1f5"></rect><path d="M93.988,101.491H2.74V48.58L47.865,10.57,93.988,48.58Z" transform="translate(3.579 -7.785)" fill="#edeff4"></path><path d="M101.588,45.882,68.435,17.964a10.158,10.158,0,0,0-6.553-2.4H26.87L62.109,45.247a25.308,25.308,0,0,0,4.853,3.22h33.674a1.474,1.474,0,0,0,1.383-.975,1.452,1.452,0,0,0-.431-1.61Z" transform="translate(34.167 -1.458)" fill="#1d1d89"></path><path d="M2.735,56.351A2.79,2.79,0,0,1,.944,51.43L50.128,10a2.812,2.812,0,0,1,3.946.34,2.767,2.767,0,0,1-.34,3.923L4.595,55.694a2.766,2.766,0,0,1-1.859.658Z" transform="translate(0.047 -9.342)" fill="#1d1d89"></path><path d="M73.638,56.351a2.766,2.766,0,0,1-1.814-.658L22.639,14.259a2.767,2.767,0,0,1-.34-3.923A2.812,2.812,0,0,1,26.245,10L75.429,51.43a2.79,2.79,0,0,1-1.791,4.921Z" transform="translate(27.536 -9.342)" fill="#1d1d89"></path></g></g><g transform="translate(115.559)"><ellipse cx="10.895" cy="10.896" rx="10.895" ry="10.896" transform="translate(8.075 8.077)" fill="#ffce0d"></ellipse><path d="M46.59,0A1.6,1.6,0,0,0,45,1.629V4.271a1.615,1.615,0,1,0,3.216,0V1.629A1.588,1.588,0,0,0,46.59,0Z" transform="translate(-27.62 0)" fill="#ffce0d"></path><path d="M46.59,23.42A1.588,1.588,0,0,0,45,25.022v2.656a1.615,1.615,0,1,0,3.216,0V25.022a1.574,1.574,0,0,0-1.629-1.6Z" transform="translate(-27.62 8.639)" fill="#ffce0d"></path><path d="M61.582,14.3a1.6,1.6,0,0,0-1.615-1.615H57.325a1.615,1.615,0,0,0,0,3.231H59.98a1.6,1.6,0,0,0,1.6-1.615Z" transform="translate(-23.669 4.678)" fill="#ffce0d"></path><path d="M38.185,14.3A1.6,1.6,0,0,0,36.57,12.68H33.915a1.615,1.615,0,0,0,0,3.231H36.57A1.6,1.6,0,0,0,38.185,14.3Z" transform="translate(-32.3 4.678)" fill="#ffce0d"></path><path d="M57.264,4.185a1.642,1.642,0,0,0-2.286,0L53.035,6.074A1.612,1.612,0,0,0,55.307,8.36l1.957-1.9a1.629,1.629,0,0,0,0-2.272Z" transform="translate(-24.826 1.373)" fill="#ffce0d"></path><path d="M40.686,20.735a1.642,1.642,0,0,0-2.286,0l-1.889,1.9a1.6,1.6,0,1,0,2.245,2.272l1.9-1.9A1.629,1.629,0,0,0,40.686,20.735Z" transform="translate(-30.955 7.478)" fill="#ffce0d"></path><path d="M57.251,24.912a1.629,1.629,0,0,0,0-2.272l-1.9-1.9a1.607,1.607,0,1,0-2.272,2.272l1.889,1.9A1.642,1.642,0,0,0,57.251,24.912Z" transform="translate(-24.813 7.476)" fill="#ffce0d"></path><path d="M40.669,8.362a1.643,1.643,0,0,0,0-2.286l-1.93-1.889a1.607,1.607,0,1,0-2.272,2.272l1.889,1.9a1.642,1.642,0,0,0,2.313,0Z" transform="translate(-30.937 1.371)" fill="#ffce0d"></path></g><rect width="15.663" height="32.756" rx="2" transform="translate(76.138 80.004)" fill="#ffce0d"></rect><rect width="59.124" height="2.848" transform="translate(21.829 96.833)" fill="#ffce0d"></rect><path d="M0-4.506l3.106,2.6L3.1,54.419H0Z" transform="translate(82.494 45.087)" fill="#ffce0d"></path><g transform="translate(10.303 83.983)"><rect width="42.912" height="28.212" rx="4" transform="translate(0.364 0.365)" fill="#fff"></rect><path d="M197.353,758.035H157.921a1.74,1.74,0,0,1-1.74-1.741V757.7a1.74,1.74,0,0,0,1.74,1.74h39.432a1.74,1.74,0,0,0,1.74-1.74v-1.406A1.74,1.74,0,0,1,197.353,758.035Z" transform="translate(-155.817 -730.864)" fill="#ffce0d"></path><path d="M196.186,678.386H156.755a2.107,2.107,0,0,1-2.1-2.105V651.549a2.107,2.107,0,0,1,2.1-2.105h39.432a2.107,2.107,0,0,1,2.1,2.105v24.731A2.107,2.107,0,0,1,196.186,678.386Zm-39.432-28.213a1.378,1.378,0,0,0-1.376,1.376v24.731a1.377,1.377,0,0,0,1.376,1.376h39.432a1.377,1.377,0,0,0,1.376-1.376V651.549a1.378,1.378,0,0,0-1.376-1.376Z" transform="translate(-154.65 -649.444)" fill="none"></path><g transform="translate(2.465 2.491)"><path d="M166.449,683.872h0a1.441,1.441,0,0,1-1.441-1.441V661.354a1.441,1.441,0,0,1,1.441-1.441h0a1.441,1.441,0,0,1,1.441,1.441v21.077A1.441,1.441,0,0,1,166.449,683.872Z" transform="translate(-165.008 -659.913)" fill="#ffce0d"></path><path d="M191.543,683.872h0a1.441,1.441,0,0,1-1.441-1.441V661.354a1.441,1.441,0,0,1,1.441-1.441h0a1.441,1.441,0,0,1,1.441,1.441v21.077A1.441,1.441,0,0,1,191.543,683.872Z" transform="translate(-184.13 -659.913)" fill="#ffce0d"></path><path d="M216.637,683.872h0a1.441,1.441,0,0,1-1.441-1.441V661.354a1.441,1.441,0,0,1,1.441-1.441h0a1.441,1.441,0,0,1,1.441,1.441v21.077A1.441,1.441,0,0,1,216.637,683.872Z" transform="translate(-203.253 -659.913)" fill="#ffce0d"></path><path d="M241.731,683.872h0a1.441,1.441,0,0,1-1.441-1.441V661.354a1.441,1.441,0,0,1,1.441-1.441h0a1.441,1.441,0,0,1,1.441,1.441v21.077A1.441,1.441,0,0,1,241.731,683.872Z" transform="translate(-222.375 -659.913)" fill="#ffce0d"></path><g transform="translate(23.886 0)"><path d="M266.825,683.872h0a1.441,1.441,0,0,1-1.441-1.441V661.354a1.441,1.441,0,0,1,1.441-1.441h0a1.441,1.441,0,0,1,1.441,1.441v21.077A1.441,1.441,0,0,1,266.825,683.872Z" transform="translate(-265.384 -659.913)" fill="#ffce0d"></path></g><g transform="translate(29.858 0)"><path d="M291.919,683.872h0a1.441,1.441,0,0,1-1.441-1.441V661.354a1.441,1.441,0,0,1,1.441-1.441h0a1.441,1.441,0,0,1,1.441,1.441v21.077A1.441,1.441,0,0,1,291.919,683.872Z" transform="translate(-290.478 -659.913)" fill="#ffce0d"></path></g><g transform="translate(35.829)"><rect width="2.882" height="23.959" rx="1.441" fill="#ffce0d"></rect></g></g></g><path d="M.134-6.856,3.217-5.289v5.16L.134-2.749Z" transform="translate(75.025 41.529)" fill="#d4dbf8"></path><path d="M.134-6.856,3.217-5.289v5.16L.134-2.749Z" transform="translate(93.675 57.383)" fill="#d4dbf8"></path><path d="M.134-6.856,3.217-5.289v5.16L.134-2.749Z" transform="translate(119.786 59.249)" fill="#d4dbf8"></path></g><path d="M74.338,46.371H34.307L0,18.22H40.03Z" transform="translate(66.2 9.964)" fill="#ffce0d"></path><path d="M51.927,38.683l-7.144-5.754H56.118l-1.53-1.28H43.146L36,25.895H47.368l-1.53-1.28H34.458L26.534,18.22H23.261L31.2,24.614H21.394L13.471,18.22H10.151l7.939,6.394H5.18l1.53,1.28H19.635l7.144,5.754H13.9l1.53,1.28H28.354L35.5,38.683H22.6l1.53,1.28H37.089l7.985,6.408h3.3l-7.939-6.394H50.2l7.939,6.394H61.5l-7.939-6.394H64.9l-1.53-1.28Zm-28.941-12.8h9.759l7.144,5.754H30.129Zm15.863,12.8L31.72,32.929h9.744l7.144,5.754Z" transform="translate(68.782 9.964)" fill="#fff"></path></g></g></svg>
