<svg xmlns="http://www.w3.org/2000/svg" xmlns:xlink="http://www.w3.org/1999/xlink" id="photovoltaic" viewBox="0 0 102.457 98.086"><g transform="translate(-2223 -3150)"><g transform="translate(-847 167.106)"><g transform="translate(3070 2969.894)"><g transform="translate(2 13)"><ellipse cx="11.683" cy="11.598" rx="11.683" ry="11.598" transform="translate(68.46 8.66)" fill="#ffce0d"></ellipse><path d="M46.7,0A1.717,1.717,0,0,0,45,1.747V4.579a1.732,1.732,0,1,0,3.449,0V1.747A1.7,1.7,0,0,0,46.7,0Z" transform="translate(33.439 0)" fill="#ffce0d"></path><path d="M46.7,23.42A1.7,1.7,0,0,0,45,25.138v2.847a1.732,1.732,0,1,0,3.449,0V25.138A1.688,1.688,0,0,0,46.7,23.42Z" transform="translate(33.439 10.784)" fill="#ffce0d"></path><path d="M62.007,14.412a1.717,1.717,0,0,0-1.732-1.732H57.442a1.732,1.732,0,0,0,0,3.464h2.847a1.717,1.717,0,0,0,1.717-1.732Z" transform="translate(38.45 5.846)" fill="#ffce0d"></path><path d="M38.611,14.412a1.717,1.717,0,0,0-1.732-1.732H34.032a1.732,1.732,0,1,0,0,3.464h2.847a1.717,1.717,0,0,0,1.732-1.732Z" transform="translate(27.501 5.846)" fill="#ffce0d"></path><path d="M57.6,4.218a1.761,1.761,0,0,0-2.451,0L53.068,6.244A1.728,1.728,0,0,0,55.5,8.695l2.1-2.04a1.747,1.747,0,0,0,0-2.436Z" transform="translate(36.982 1.741)" fill="#ffce0d"></path><path d="M41.029,20.768a1.761,1.761,0,0,0-2.451,0l-2.025,2.04a1.717,1.717,0,1,0,2.407,2.436L41,23.2A1.747,1.747,0,0,0,41.029,20.768Z" transform="translate(29.207 9.312)" fill="#ffce0d"></path><path d="M57.587,25.247a1.747,1.747,0,0,0,0-2.436l-2.04-2.04a1.723,1.723,0,1,0-2.436,2.436l2.025,2.04A1.761,1.761,0,0,0,57.587,25.247Z" transform="translate(36.999 9.309)" fill="#ffce0d"></path><path d="M41.007,8.7a1.761,1.761,0,0,0,0-2.451L38.937,4.221A1.723,1.723,0,1,0,36.5,6.657L38.526,8.7a1.761,1.761,0,0,0,2.48,0Z" transform="translate(29.23 1.739)" fill="#ffce0d"></path></g><path d="M91.386,95.572H42.175L0,18.22H49.211Z" transform="translate(0 15.514)" fill="#ffce0d"></path><path d="M0,18.22V30.513L35.177,95.572h7.035Z" transform="translate(0 15.514)" fill="#1d1d89"></path><path d="M61.759,74.447,53.113,58.636H66.832l-1.851-3.518H51.132L42.486,39.308H56.242L54.391,35.79H40.616l-9.59-17.57H27.064l9.609,17.57H24.805l-9.59-17.57H11.2l9.609,17.57H5.18l1.851,3.518H22.676l8.646,15.811H15.733l1.851,3.518H33.229l8.646,15.811H26.268l1.851,3.518H43.8l9.664,17.607h4L47.855,78H59.667l9.609,17.57h4.073L63.74,78H77.459l-1.851-3.518ZM26.73,39.271H38.543l8.646,15.811H35.377Zm19.2,35.177L37.3,58.636H49.1l8.646,15.811Z" transform="translate(4.41 15.514)" fill="#fff"></path></g></g></g></svg>
