<svg xmlns="http://www.w3.org/2000/svg" width="462.001" height="314.734" viewBox="0 0 462.001 314.734">
    <defs>
        <style>
            .cls-1{fill:#d8b092}.cls-1,.cls-13,.cls-19,.cls-2,.cls-21,.cls-23,.cls-26,.cls-27,.cls-28,.cls-29,.cls-3,.cls-30,.cls-32,.cls-34,.cls-4,.cls-40,.cls-41{fill-rule:evenodd}.cls-11,.cls-2{fill:#f0ebe6}.cls-12,.cls-3{fill:#fff}.cls-14,.cls-4{fill:#003250}.cls-6{fill:#ffdeba}.cls-7{fill:#2e355d}.cls-13{fill:#e0d9d0}.cls-17{fill:#4d6b7d}.cls-27{fill:#769fb8}.cls-19{fill:#8bb1c9}.cls-21{fill:#b6ddf5}.cls-23{fill:#ffa178}.cls-26{fill:#d47e59}.cls-28{fill:#ffba9c}.cls-29{fill:#b0684a}.cls-30{fill:#dbd9d7}.cls-32{fill:#fcd03f}.cls-34{fill:#75a34b}.cls-40{fill:#505c23}.cls-41{fill:#ffe9c9}
        </style>
    </defs>
    <g id="Effy_particuliers_at_home_RET_OK_vieux_seul_sur_son_canap" transform="translate(67.12 -148.111)">
        <path id="Tracé_30965" d="M59.5 483.79l-8.92 26.394h1.768l13.475-26.394z" class="cls-1" data-name="Tracé 30965" transform="translate(-96.075 -99.227)"/>
        <path id="Tracé_30966" d="M76.324 409.34a3.374 3.374 0 1 1-3.374 3.374 3.374 3.374 0 0 1 3.374-3.374z" class="cls-2" data-name="Tracé 30966" transform="translate(-102.688 -77.22)"/>
        <path id="Tracé_30967" d="M52.9 431.76h15.447l4.846 35.523h-15.44z" class="cls-3" data-name="Tracé 30967" transform="translate(-96.761 -83.847)"/>
        <path id="Tracé_30968" d="M64.61 431.76h15.447l4.843 35.523H69.463z" class="cls-2" data-name="Tracé 30968" transform="translate(-100.222 -83.847)"/>
        <path id="Tracé_30969" d="M70.37 431.76h15.447l4.846 35.523h-15.44z" class="cls-4" data-name="Tracé 30969" transform="translate(-101.925 -83.847)"/>
        <path id="Tracé_30970" d="M71.02 431.76h15.44l6.03 35.523H77.043z" class="cls-2" data-name="Tracé 30970" transform="translate(-102.117 -83.847)"/>
        <path id="Tracé_30971" fill="#ff6161" fill-rule="evenodd" d="M75.19 431.76h15.44l4.853 35.523H80.036z" data-name="Tracé 30971" transform="translate(-103.35 -83.847)"/>
        <path id="Rectangle_4068" d="M0 0H3.515V60.543H0z" class="cls-6" data-name="Rectangle 4068" transform="translate(-56.434 325.64)"/>
        <path id="Rectangle_4069" d="M0 0H5.854V1.817H0z" class="cls-7" data-name="Rectangle 4069" transform="translate(-67.12 410.957)"/>
        <path id="Rectangle_4070" d="M0 0H5.854V1.817H0z" class="cls-7" data-name="Rectangle 4070" transform="translate(389.027 410.957)"/>
        <g id="Groupe_9727" data-name="Groupe 9727" transform="translate(-57.878 148.111)">
            <path id="Tracé_30972" fill="#d6f2ff" fill-rule="evenodd" d="M406.619 356.936c0 80.738-120.17 76.646-170.788 99.348C162.165 489.335 89.64 390.839 89.64 310.1s92.41-206.41 146.191-146.191C358.368 301.113 406.619 276.2 406.619 356.936z" data-name="Tracé 30972" transform="translate(-49.743 -148.111)"/>
            <path id="Tracé_30973" d="M475.176 440.57l24.97 30.63 24.971-30.634.726.592-25.1 30.782 21.224 26.035h-1.212l-20.611-25.295-20.618 25.295h-1.2l21.216-26.035-25.092-30.778z" class="cls-4" data-name="Tracé 30973" transform="translate(-163.493 -234.562)"/>
            <path id="Rectangle_4071" fill="#d8b092" d="M0 0H48.279V4.98H0z" data-name="Rectangle 4071" transform="translate(312.513 202.605)"/>
            <path id="Tracé_30974" d="M58.34 469.72l21.97 36.3h79.132v-35.328z" class="cls-1" data-name="Tracé 30974" transform="translate(-40.491 -243.179)"/>
            <path id="Tracé_30975" d="M311.435 483.79l8.918 26.394h-1.768L305.11 483.79z" class="cls-1" data-name="Tracé 30975" transform="translate(-113.436 -247.338)"/>
            <path id="Rectangle_4072" fill="#ccaf99" d="M0 0H162.716V58.43H0z" data-name="Rectangle 4072" transform="translate(3.106 178.571)"/>
            <path id="Rectangle_4073" d="M0 0H209.805V3.057H0z" class="cls-6" data-name="Rectangle 4073" transform="translate(4.276 195.181)"/>
            <path id="Rectangle_4074" d="M0 0H53.837V13.461H0z" class="cls-11" data-name="Rectangle 4074" transform="translate(22.773 181.727)"/>
            <path id="Rectangle_4075" d="M0 0H53.837V11.122H0z" class="cls-12" data-name="Rectangle 4075" transform="translate(22.773 181.727)"/>
            <path id="Rectangle_4076" d="M0 0H31.092V4.367H0z" class="cls-11" data-name="Rectangle 4076" transform="translate(38.862 185.496)"/>
            <path id="Tracé_30976" d="M86.9 431.76h15.44l4.853 35.523H91.746z" class="cls-2" data-name="Tracé 30976" transform="translate(-48.933 -231.958)"/>
            <path id="Rectangle_4077" d="M0 0H211.749V3.057H0z" class="cls-6" data-name="Rectangle 4077" transform="translate(2.332 177.529)"/>
            <path id="Tracé_30977" d="M92.66 431.76h15.44l4.853 35.523H97.506z" class="cls-4" data-name="Tracé 30977" transform="translate(-50.636 -231.958)"/>
            <path id="Tracé_30978" d="M93.3 431.76h15.447l6.023 35.523H99.33z" class="cls-2" data-name="Tracé 30978" transform="translate(-50.825 -231.958)"/>
            <path id="Tracé_30979" d="M97.02 431.76h15.447l6.023 35.523h-15.44z" class="cls-4" data-name="Tracé 30979" transform="translate(-51.924 -231.958)"/>
            <path id="Tracé_30980" d="M100.47 431.76h15.447l11.6 35.523h-15.446z" class="cls-13" data-name="Tracé 30980" transform="translate(-52.944 -231.958)"/>
            <path id="Rectangle_4078" d="M0 0H211.749V3.057H0z" class="cls-6" data-name="Rectangle 4078" transform="translate(2.332 235.015)"/>
            <path id="Rectangle_4079" d="M0 0H2.317V43.011H0z" class="cls-6" data-name="Rectangle 4079" transform="translate(113.401 197.125)"/>
            <path id="Rectangle_4080" d="M0 0H10.15V18.927H0z" class="cls-14" data-name="Rectangle 4080" transform="translate(94.481 150.825)"/>
            <path id="Tracé_30981" d="M116.23 431.76h15.44l4.853 35.523h-15.447z" class="cls-3" data-name="Tracé 30981" transform="translate(-57.603 -231.958)"/>
            <path id="Tracé_30982" d="M129.04 431.76h15.44l11.066 35.523h-15.44z" class="cls-13" data-name="Tracé 30982" transform="translate(-61.39 -231.958)"/>
            <path id="Rectangle_4081" d="M0 0H2.641V113.218H0z" class="cls-14" data-name="Rectangle 4081" transform="translate(98.235 56.534)"/>
            <path id="Tracé_30983" d="M156.9 365.47h6.269l-34.563 110.267h-2.656z" class="cls-4" data-name="Tracé 30983" transform="translate(-60.476 -212.363)"/>
            <path id="Tracé_30984" d="M176.159 365.47h-6.269l34.558 110.267h2.652z" class="cls-4" data-name="Tracé 30984" transform="translate(-73.465 -212.363)"/>
            <path id="Tracé_30985" d="M178.292 365.5l-6.262-.176 3.4 110.4 2.649.07z" class="cls-4" data-name="Tracé 30985" transform="translate(-74.097 -212.318)"/>
            <path id="Rectangle_4082" d="M0 0H4.557V28.577H0z" class="cls-14" data-name="Rectangle 4082" transform="translate(97.277 130.017)"/>
            <path id="Tracé_30986" fill="#e8e8e8" fill-rule="evenodd" d="M281.26 264.806V179.44h-59.268v82.591L208.6 212.047h-34.93l-14.06 52.485h30.31v33.339h-.88v19.167h-2.578v8.474l-26.725 95.235h2.444l26.971-86.056 5 86.056h2.448l-2.064-81.555 25.564 81.554h2.444l-26.732-95.235v-8.474h-2.578v-19.166h-.88v-33.34h29.641v.275z" data-name="Tracé 30986" opacity="0.57" transform="translate(-70.426 -157.372)"/>
            <path id="Rectangle_4083" d="M0 0H54.795V85.134H0z" class="cls-14" data-name="Rectangle 4083" transform="translate(150.135 18.877)"/>
            <path id="Rectangle_4084" d="M0 0H49.392V78.78H0z" class="cls-12" data-name="Rectangle 4084" transform="translate(152.84 21.878)"/>
            <path id="Rectangle_4085" fill="#ebe0dc" d="M0 0H40.482V64.572H0z" data-name="Rectangle 4085" transform="translate(157.292 28.978)"/>
            <path id="Rectangle_4086" d="M0 0H239.834V62.938H0z" class="cls-17" data-name="Rectangle 4086" transform="translate(132.547 149.113)"/>
            <path id="Rectangle_4087" d="M0 0H257.873V17.751H0z" class="cls-17" data-name="Rectangle 4087" transform="translate(116.183 219.772)"/>
            <path id="Rectangle_4088" fill="#769fb8" d="M0 0H257.873V34.022H0z" data-name="Rectangle 4088" transform="translate(116.183 228.858)"/>
            <path id="Rectangle_4089" d="M0 0H2.902V67.531H0z" class="cls-17" data-name="Rectangle 4089" transform="translate(132.547 195.343)"/>
            <path id="Tracé_30987" d="M241.183 337.056c80.478-3.74 116.62 1.4 203.3 0 9.059-.148 16.469 5.311 16.469 11.8 3.409 22.329 0 25.38 0 38.066 0 6.487-7.41 11.8-16.469 11.8H355.31l-58.7 2.465-59-2.465c-9.044-.38-16.469-5.311-16.469-11.8-.012-14.357-11.841-48.387 20.042-49.866z" class="cls-19" data-name="Tracé 30987" transform="translate(-87.977 -203.552)"/>
            <path id="Tracé_30988" fill="#769ab0" fill-rule="evenodd" d="M446.333 382.329c-.113 1.8-.19 3.733-.19 5.973a11.893 11.893 0 0 1-11.918 11.8h-12s-28.81-42.87-27.225-58.592l4.205-1.169s8.777 2.008 14.821 6.509 20.223 18.864 23.027 21.984 3.4 4.163 5.544 8.41a33.206 33.206 0 0 0 3.736 5.085z" data-name="Tracé 30988" transform="translate(-139.99 -204.934)"/>
            <path id="Tracé_30989" d="M235.057 337.556c8.777-.564 90.114.268 97.665.056 8.685 1.6-13.524 9.742 5.769 29.93s31.141 31.684 31.141 31.684l-42.694-.43c-12.475-4.093-96.474-16.173-106.723-17.638-1.331-16.158-5.325-42.313 14.842-43.602z" class="cls-21" data-name="Tracé 30989" transform="translate(-87.978 -204.052)"/>
            <path id="Tracé_30990" d="M223.65 427.049l29.071-1.529 178.544 3.085 31.951-1.557.2 28.331h-4.546c-76.343 3.592-150.882 3.592-235.023 0z" class="cls-19" data-name="Tracé 30990" transform="translate(-89.356 -230.113)"/>
            <path id="Tracé_30991" fill="#a0c6de" fill-rule="evenodd" d="M231.127 426.211c47.85-5.734 74.8 0 112.2 0 0 0 20.371 6.4 23.421 14.539s-17.709 8.009-36.368 6.375-98.44 1.986-99.771-8.009a33.236 33.236 0 0 1 .518-12.905z" data-name="Tracé 30991" transform="translate(-91.304 -229.564)"/>
            <path id="Tracé_30992" d="M294.98 375.23c5.882 2.423 48.808 34.614 48.808 34.614s-39.9-19.463-48.808-27.507c5.79 1.895 47.476 26.711 48.78 27.486-1.247-.761-40.01-24.623-48.78-34.593z" class="cls-19" data-name="Tracé 30992" transform="translate(-110.442 -215.248)"/>
            <path id="Tracé_30993" d="M317.6 360.01c5.438 3.311 42.834 41.785 42.834 41.785s-35.607-30.402-42.834-41.785z" class="cls-19" data-name="Tracé 30993" transform="translate(-117.128 -210.749)"/>
            <path id="Tracé_30994" d="M330.972 365.129l-5.861-4.853-1.522-2.113s3.529.9 9.383-3.614 13.236-11.049 23.809-12.449-25.809 23.029-25.809 23.029z" class="cls-19" data-name="Tracé 30994" transform="translate(-118.899 -205.436)"/>
            <path id="Tracé_30995" d="M349.243 349.865l-7.157-1.085s-17.61 14.673-21.146 19.23-3.346 16.828 3.931 16.448 12.82-1.226 13.5-4.635 10.872-29.958 10.872-29.958z" class="cls-3" data-name="Tracé 30995" transform="translate(-117.453 -207.429)"/>
            <path id="Tracé_30996" d="M361.611 338.449s-23.464 6.227-22.787 23.048-.247 39.51 3.733 40.031 59.423.472 61.98-1.62 1.7-47.519-7.389-53.767-22.484-10.221-22.484-10.221z" class="cls-3" data-name="Tracé 30996" transform="translate(-123.398 -203.628)"/>
            <path id="Tracé_30997" d="M337.27 393.3s1.4-4.3 5.17-4.952 11.4 4.825 13.982 6.727-12.981 5.043-19.152-1.775z" class="cls-23" data-name="Tracé 30997" transform="translate(-122.943 -219.109)"/>
            <path id="Tracé_30998" d="M421.32 352.7l.225-2.268s21.414 20.435 23.992 25.591 0 17.152-7.065 15.363-12.334-3.7-12.334-7.178-4.818-31.508-4.818-31.508z" class="cls-3" data-name="Tracé 30998" transform="translate(-147.788 -207.917)"/>
            <path id="Tracé_30999" d="M423.492 394.989s-1.4-4.3-5.17-4.952-11.4 4.825-13.982 6.727 12.988 5.044 19.152-1.775z" class="cls-23" data-name="Tracé 30999" transform="translate(-142.683 -219.609)"/>
            <path id="Tracé_31000" fill="#ccc" fill-rule="evenodd" d="M342.959 356.89h54.584a1.6 1.6 0 0 1 1.62 1.775q-.771 8.146-1.493 15.652l-1.324 13.926a1.676 1.676 0 0 1-1.7 1.388H346.65a1.715 1.715 0 0 1-1.726-1.388l-1.662-13.926q-.9-7.512-1.867-15.652a1.55 1.55 0 0 1 1.564-1.775z" data-name="Tracé 31000" transform="translate(-124.159 -209.826)"/>
            <path id="Tracé_31001" d="M480.3 416.438s-6.572 5.156-1.2 9.291l12.3.092s2.966-5.9.19-8.072-11.29-1.311-11.29-1.311z" class="cls-3" data-name="Tracé 31001" transform="translate(-164.243 -227.378)"/>
            <path id="Tracé_31002" d="M486.02 416.808a5.524 5.524 0 0 0 .676-.19c3.487-1.092 19.392-6.53 29.5-5.53 11.235 1.113 11.9 13.595 11.9 13.595l-36.946-.331z" class="cls-3" data-name="Tracé 31002" transform="translate(-166.913 -225.811)"/>
            <path id="Tracé_31003" d="M472.98 417.7s3.17 4.036 3.585 4.05 1.557-2.874 1.655-3.149-5.24-.901-5.24-.901z" class="cls-3" data-name="Tracé 31003" transform="translate(-163.059 -227.802)"/>
            <path id="Tracé_31004" d="M487.9 410.62l-2.1 5.889 5.015.585z" class="cls-3" data-name="Tracé 31004" transform="translate(-166.848 -225.709)"/>
            <path id="Tracé_31005" fill="#ffb8b8" fill-rule="evenodd" d="M482.539 426.489a13.309 13.309 0 0 0 1.268.831c.324.141.9-1.5.9-1.5s-2.26.092-2.168.669z" data-name="Tracé 31005" transform="translate(-165.884 -230.202)"/>
            <path id="Tracé_31006" d="M485.8 422.645a1.344 1.344 0 0 0 1.775-.275l.338.31a1.818 1.818 0 0 1-2.395.324z" class="cls-19" data-name="Tracé 31006" transform="translate(-166.766 -229.182)"/>
            <path id="Tracé_31007" d="M479.1 424.012a1.153 1.153 0 0 0 1.521-.232l.289.261a1.546 1.546 0 0 1-2.057.275z" class="cls-19" data-name="Tracé 31007" transform="translate(-164.794 -229.599)"/>
            <path id="Tracé_31008" d="M534.593 422.75s7.748-8.692 7.741-10.39 3.17-6.128 3-6.868c-.423-1.838-1.8-1.831-4.057.888s-3.092 6.706-3.762 7.129-7.016 6.7-7.016 6.7z" class="cls-3" data-name="Tracé 31008" transform="translate(-180.062 -223.814)"/>
            <path id="Tracé_31009" d="M381.025 376.48a3.744 3.744 0 0 1 3.86 3.621 3.662 3.662 0 0 1-3.776 3.529 3.757 3.757 0 0 1-3.86-3.529 3.643 3.643 0 0 1 3.776-3.621z" class="cls-3" data-name="Tracé 31009" transform="translate(-134.76 -215.617)"/>
            <path id="Tracé_31010" d="M387.52 401.206c-6.185 0-20.139 2.029-31.057-.669a25.745 25.745 0 0 0-6.981-.69 11.361 11.361 0 0 0-3.29-.169l-.521.549c-.937.162-1.529.31-1.529.31s-16.673 8.425-4.931 19.723a159.9 159.9 0 0 0 29.585 2.465c17.258 0 21.364.225 27.422-5.213s1.868-16.306-8.698-16.306z" class="cls-4" data-name="Tracé 31010" transform="translate(-122.279 -222.458)"/>
            <path id="Tracé_31011" d="M347.491 485.31s1.458 6.6 1.12 9.96-6.121 13.6-6.121 13.6l20.977 1.761-8.122-25.323z" class="cls-23" data-name="Tracé 31011" transform="translate(-124.486 -247.787)"/>
            <path id="Tracé_31012" d="M349.59 485.307s1.458 6.6 1.12 9.96c-.007.084-.021.176-.035.268a20.365 20.365 0 0 0 9.629-1.289l-2.867-8.946h-7.847z" class="cls-26" data-name="Tracé 31012" transform="translate(-126.584 -247.784)"/>
            <path id="Tracé_31013" d="M391.74 484.772s-2.775 6.248-3.12 9.594.662 15.236.662 15.236l-18.582.106 13.285-26.147z" class="cls-23" data-name="Tracé 31013" transform="translate(-132.825 -247.27)"/>
            <path id="Tracé_31014" d="M395.353 484.772s-2.775 6.248-3.12 9.594a20.865 20.865 0 0 0-.07 2.177 20.646 20.646 0 0 1-9.242-3.761l4.684-9.221z" class="cls-26" data-name="Tracé 31014" transform="translate(-136.437 -247.27)"/>
            <path id="Tracé_31015" d="M194.713 403.72h13.144a4.923 4.923 0 0 1 4.91 4.91v77.914H189.81V408.63a4.921 4.921 0 0 1 4.903-4.91z" class="cls-19" data-name="Tracé 31015" transform="translate(-79.353 -223.669)"/>
            <path id="Tracé_31016" d="M212.766 492.189v12.362H189.81V464.64z" class="cls-27" data-name="Tracé 31016" transform="translate(-79.353 -241.677)"/>
            <path id="Tracé_31017" d="M192.6 403.069l12.926.465a4.27 4.27 0 0 1 3.9 4.459V424.4h-20.048l-.669-16.87c-.099-2.453 1.753-4.538 3.891-4.461z" class="cls-21" data-name="Tracé 31017" transform="translate(-79.027 -223.476)"/>
            <path id="Rectangle_4090" d="M0 0H2.902V66.918H0z" class="cls-17" data-name="Rectangle 4090" transform="translate(369.704 195.963)"/>
            <path id="Tracé_31018" d="M566.873 403.72h13.144a4.923 4.923 0 0 1 4.91 4.91v77.914H561.97V408.63a4.921 4.921 0 0 1 4.903-4.91z" class="cls-27" data-name="Tracé 31018" transform="translate(-189.364 -223.669)"/>
            <path id="Tracé_31019" d="M373.619 303c.042 3.283-1.761 6.206-1.345 10.073.3 2.761 2.853 6.537 2.888 8.875.035 2.775-1.233 3.473-1.2 6.248 2.437 3.437 10.27 5.107 16.236 2.825l-.761-18.645c.003.003-9.654-10.796-15.818-9.376z" class="cls-28" data-name="Tracé 31019" transform="translate(-133.271 -193.857)"/>
            <path id="Tracé_31020" d="M382.747 337.651a17.974 17.974 0 0 0 9.826-.655l-.416-10.193c-4.881-1.613-11.918-3.733-11.918-3.733-.106.416 5.692 10.791 2.261 11.848s-.936 1.698.247 2.733z" class="cls-26" data-name="Tracé 31020" transform="translate(-135.644 -199.829)"/>
            <path id="Tracé_31021" d="M375.923 314.561s5.368 8.847 7.389 10.615 9.594 2.536 12.2.317 1.31-24.386-2.381-27.084-18.427-5.854-18.955 2.409a33.37 33.37 0 0 0 1.747 13.743z" class="cls-23" data-name="Tracé 31021" transform="translate(-133.829 -191.679)"/>
            <path id="Tracé_31022" d="M377.3 318.731a49.412 49.412 0 0 0 5.987 7.481c1.113.972 3.17 1.458 5.508 1.627-.19-1.669-1.6-4.332-2-6.361-.62-3.085 5.445-3 5.283-4.121s.042-.754.247-.951a11.308 11.308 0 0 0 1.7-1.437 14.825 14.825 0 0 0-2-4.487c-.711-.909-2.184-7.417-2.184-7.417s-11.383-3.931-13.369-4.057-1.4 2.592-2.247 4.515c-.528 1.2-.056 7.8 1.338 12.468.345 1.109 1.472 1.881 1.737 2.74z" class="cls-28" data-name="Tracé 31022" transform="translate(-133.806 -192.715)"/>
            <path id="Tracé_31023" d="M396.727 306.054a21.87 21.87 0 0 0-1.05-3.487c-2.317-.056-11.3-.056-12.214.218-1.043.31-5.353 5.4-5.353 5.4l2.381 4.7s-.028-4.276 1.127-4.973 6.854-1 9.052-.888a25.723 25.723 0 0 0 6.057-.97z" class="cls-26" data-name="Tracé 31023" transform="translate(-135.015 -193.76)"/>
            <path id="Tracé_31024" d="M370.178 305.427s1.761 7.727 2.747 8.622c.578.521 1.444-2.677 2.811-5.7.106-.24.683.606 1.05 1.669.472 1.374.993 3.008 1.141 2.719.239-.465-.683-6.981-.43-7.375a4.361 4.361 0 0 1 1.7-1.74c2.747-1.141 14.539.106 16.659-3.043s-7.9-9.368-15.3-8.608-14.64 2.929-10.378 13.456z" class="cls-13" data-name="Tracé 31024" transform="translate(-132.295 -190.618)"/>
            <path id="Tracé_31025" d="M376.437 292.826s-6.917 2.451-7.15 5.269 6.565 4.233 11.137 3.374 6.931-1.775 8.889-1.571-3.057-2.247-5.67-2.5 8.072.148 8.072.148-3.831-6.277-15.278-4.72z" class="cls-3" data-name="Tracé 31025" transform="translate(-132.405 -190.816)"/>
            <path id="Tracé_31026" d="M389.43 318.995s1.12-1.543 1.972-1.768 2.515.845 2.515.845l-2.106.437z" class="cls-29" data-name="Tracé 31026" transform="translate(-138.361 -198.093)"/>
            <path id="Tracé_31027" d="M403.941 316.957a5.093 5.093 0 0 0-1.747-.888c-.585-.021-1.254.986-1.254.986z" class="cls-29" data-name="Tracé 31027" transform="translate(-141.764 -197.76)"/>
            <path id="Tracé_31028" d="M404.791 313.723l-2.071-.5-2.67-.655.437-2.268.958 1.374 2.029.556z" class="cls-30" data-name="Tracé 31028" transform="translate(-141.501 -196.054)"/>
            <path id="Tracé_31029" d="M386.3 318.077l1.712-1.3a2.914 2.914 0 0 1 1.12-.521l4.452-.993-.866-3.17-1.444 2.015-2.8 1.148a2.9 2.9 0 0 0-1.521 1.444z" class="cls-3" data-name="Tracé 31029" transform="translate(-137.436 -196.583)"/>
            <path id="Tracé_31030" d="M399.674 314.49a41.439 41.439 0 0 1 2.353 4.846c.113.888-2.2 1.662-2.2 1.662l-.113-.176c.007 0 1.634-1 1.578-1.395-.077-.585-1.93-4.741-1.937-4.748z" class="cls-29" data-name="Tracé 31030" transform="translate(-141.294 -197.293)"/>
            <path id="Tracé_31031" d="M389.25 326.718s.387 7.812 3.515 9.178 7.727-.7 8.213-1.979 2.12-7.572.366-9-11.244.012-12.094 1.801z" class="cls-13" data-name="Tracé 31031" transform="translate(-138.308 -200.202)"/>
            <path id="Tracé_31032" d="M389.34 326.67s.211 5.692 2.233 6.671 5.015-.549 5.339-1.486 1.416-5.53.282-6.565-7.294.07-7.854 1.38z" class="cls-3" data-name="Tracé 31032" transform="translate(-138.335 -200.365)"/>
            <path id="Tracé_31033" d="M394.13 327.748s.331 2.663 2.113 2.973 4.346-.641 4.607-1.106 1.092-2.712.085-3.113-6.347.584-6.805 1.246z" class="cls-23" data-name="Tracé 31033" transform="translate(-139.751 -200.816)"/>
            <path id="Tracé_31034" d="M400.446 329.06a1.872 1.872 0 0 1-2.916.387 4.321 4.321 0 0 0 1.493.049 4.447 4.447 0 0 0 1.423-.436z" class="cls-26" data-name="Tracé 31034" transform="translate(-140.756 -201.6)"/>
            <path id="Tracé_31035" d="M395.92 327.7l5.191-.944c.007.004-2.275 3.42-5.191.944z" class="cls-3" data-name="Tracé 31035" transform="translate(-140.28 -200.92)"/>
            <path id="Tracé_31036" d="M141.024 200.46l-15.264 56.958h68.432l-15.257-56.958h-37.911z" class="cls-3" data-name="Tracé 31036" transform="translate(-60.42 -163.585)"/>
            <path id="Tracé_31037" d="M196.234 257.418h14.743l-15.264-56.958H180.97z" class="cls-13" data-name="Tracé 31037" transform="translate(-76.74 -163.585)"/>
            <path id="Tracé_31038" d="M366.99 302.31l2.585 5.776-.352-4.233z" class="cls-30" data-name="Tracé 31038" transform="translate(-131.728 -193.692)"/>
            <path id="Tracé_31039" d="M377.774 296l-5.544 3.036 4.191-.69z" class="cls-30" data-name="Tracé 31039" transform="translate(-133.277 -191.827)"/>
            <path id="Tracé_31040" d="M381.812 299.64l-10.742 1.06 8.115-.24z" class="cls-30" data-name="Tracé 31040" transform="translate(-132.934 -192.903)"/>
            <path id="Tracé_31041" d="M372.341 334.98s8.671 3.663 9.171 8.4l-11.742-4.91z" class="cls-3" data-name="Tracé 31041" transform="translate(-132.55 -203.35)"/>
            <path id="Tracé_31042" d="M369.762 301.179c-.155-.155-1.275-1.169-1.275-1.169a8.359 8.359 0 0 0-.056 3.311l-2-1.5 3.621 9.284.655-3.311a16.155 16.155 0 0 1 8.474-2.733c-.001-.015-9.708-.747-9.419-3.882z" class="cls-3" data-name="Tracé 31042" transform="translate(-131.562 -193.012)"/>
            <path id="Tracé_31043" d="M377.335 318.808c-.247.592-1.381 2.994-2.825 2.8s-3.7-6.72-2.247-8.411 3.367.859 4.212 2.022a7.764 7.764 0 0 1 .86 3.589z" class="cls-28" data-name="Tracé 31043" transform="translate(-133.148 -196.743)"/>
            <path id="Tracé_31044" d="M373.492 317.03l3.67 2.825-1.141 1.374.8.5-.247.387-1.226-.782 1.162-1.409-3.3-2.529z" class="cls-29" data-name="Tracé 31044" transform="translate(-133.567 -198.044)"/>
            <path id="Tracé_31045" fill="#ffeb57" fill-rule="evenodd" d="M256.451 423.1c4.4 0 8.453 2.923 9.066 6.523s-2.451 6.523-6.84 6.523-8.453-2.923-9.066-6.523a5.155 5.155 0 0 1-.056-1.388 1.627 1.627 0 0 1-.782-1.064c-.134-.775.528-1.4 1.465-1.4.077 0 .162.007.239.014a7.2 7.2 0 0 1 5.974-2.685z" data-name="Tracé 31045" transform="translate(-96.778 -229.398)"/>
            <path id="Tracé_31046" d="M253.985 425.83c.514 0 .655.416.317.93a2.131 2.131 0 0 1-1.543.93c-.514 0-.655-.416-.317-.93a2.131 2.131 0 0 1 1.543-.93z" class="cls-3" data-name="Tracé 31046" transform="translate(-97.813 -230.205)"/>
            <path id="Tracé_31047" d="M256.47 424.49c.225 0 .289.183.141.409a.935.935 0 0 1-.683.409c-.225 0-.289-.183-.141-.409a.961.961 0 0 1 .683-.409z" class="cls-3" data-name="Tracé 31047" transform="translate(-98.832 -229.809)"/>
            <path id="Tracé_31048" d="M274.555 421.18c4.114 1.536 6.9 5.7 6.206 9.291s-4.579 5.255-8.7 3.712-6.9-5.7-6.206-9.291a5.262 5.262 0 0 1 .437-1.317 1.618 1.618 0 0 1-.359-1.275 1.293 1.293 0 0 1 1.867-.8 2.048 2.048 0 0 1 .218.1 7.216 7.216 0 0 1 6.537-.42z" class="cls-32" data-name="Tracé 31048" transform="translate(-101.801 -228.662)"/>
            <path id="Tracé_31049" d="M271.739 422.207c.479.183.465.62-.028.979a2.158 2.158 0 0 1-1.768.331c-.479-.176-.465-.62.028-.979a2.108 2.108 0 0 1 1.768-.331z" class="cls-3" data-name="Tracé 31049" transform="translate(-102.937 -229.111)"/>
            <path id="Tracé_31050" d="M274.661 421.7c.211.077.2.275-.014.43a.944.944 0 0 1-.782.148c-.211-.077-.2-.275.014-.43a.923.923 0 0 1 .782-.148z" class="cls-3" data-name="Tracé 31050" transform="translate(-104.155 -228.975)"/>
            <path id="Tracé_31051" d="M300.571 423.014c-4.388-.232-8.594 2.472-9.4 6.044s2.106 6.642 6.495 6.875 8.594-2.479 9.4-6.044a5.2 5.2 0 0 0 .127-1.381 1.636 1.636 0 0 0 .838-1.021c.169-.768-.451-1.423-1.395-1.472a1.359 1.359 0 0 0-.24 0 7.154 7.154 0 0 0-5.825-3.001z" class="cls-32" data-name="Tracé 31051" transform="translate(-109.277 -229.369)"/>
            <path id="Tracé_31052" d="M295.6 426c.514-.028.676.38.366.909a2.14 2.14 0 0 1-1.493 1.007c-.514.028-.676-.38-.359-.909A2.142 2.142 0 0 1 295.6 426z" class="cls-3" data-name="Tracé 31052" transform="translate(-110.137 -230.255)"/>
            <path id="Tracé_31053" d="M298.007 424.55c.225-.014.3.169.162.4a.941.941 0 0 1-.655.444c-.225.014-.3-.169-.162-.4a.927.927 0 0 1 .655-.444z" class="cls-3" data-name="Tracé 31053" transform="translate(-111.123 -229.826)"/>
            <path id="Tracé_31054" d="M348.769 419.618l2.909 42.715a20.594 20.594 0 0 1-14.715 2.409s-13.644-56.028-12.954-60.515c.458-2.98 5.522-9.305 12.285-9.594 14.116-.613 11.848 15.807 12.475 24.985z" class="cls-4" data-name="Tracé 31054" transform="translate(-119.015 -220.978)"/>
            <path id="Tracé_31055" d="M335.219 457.855c-3.663-15.314-11.735-49.752-11.2-53.224.359-2.346 3.564-6.748 8.206-8.671-.042.063-4.55 6.727-2.839 14.172 1.712 7.488 5.832 47.73 5.832 47.723z" class="cls-4" data-name="Tracé 31055" transform="translate(-119.018 -221.375)"/>
            <path id="Tracé_31056" d="M416.174 425.064l-17.716 36.812s-8.037.719-14.349-4.36c0 0 14.419-52.534 17.173-55.964 1.831-2.282 9.383-5.353 15.588-2.67 12.962 5.586 3.108 18.272-.696 26.182z" class="cls-4" data-name="Tracé 31056" transform="translate(-136.789 -221.93)"/>
            <path id="Tracé_31057" fill="#ff734c" fill-rule="evenodd" d="M284.784 416.97a6.983 6.983 0 0 1 7.037 7.347 7.733 7.733 0 0 1-7.657 7.347 6.983 6.983 0 0 1-7.037-7.347 7.733 7.733 0 0 1 7.657-7.347z" data-name="Tracé 31057" transform="translate(-105.162 -227.586)"/>
            <path id="Tracé_31058" d="M250.282 419.276c-.585 2.754 5.008 9.721 9.869 11.313s7.826-1.24 8.418-3.994-2.691-6.255-6.3-5.973-11.402-4.1-11.987-1.346z" class="cls-34" data-name="Tracé 31058" transform="translate(-97.216 -227.998)"/>
            <path id="Tracé_31059" d="M295.159 430.04a30.162 30.162 0 0 1-52.619 0z" class="cls-3" data-name="Tracé 31059" transform="translate(-94.94 -231.45)"/>
            <path id="Tracé_31060" d="M304.928 430.037a30.138 30.138 0 0 1-26.309 15.412 30.632 30.632 0 0 1-3.959-.261c9.347-1.261 16.3-7.051 19.124-15.159h11.144z" class="cls-21" data-name="Tracé 31060" transform="translate(-104.435 -231.447)"/>
            <path id="Tracé_31061" d="M248.414 414.937a3.559 3.559 0 0 0 2.444 3.367l-.232.655a4.267 4.267 0 0 1-2.916-4.029h.7z" class="cls-34" data-name="Tracé 31061" transform="translate(-96.468 -226.983)"/>
            <path id="Tracé_31062" fill="#8cbf5b" fill-rule="evenodd" d="M250.269 418.987c-.366 1.712 3.113 6.037 6.128 7.023s4.86-.768 5.227-2.479-1.853-2.451-4.093-2.275-6.903-3.974-7.262-2.269z" data-name="Tracé 31062" transform="translate(-97.217 -228.061)"/>
            <path id="Tracé_31063" d="M403.426 435.98c-.726 5.2-4.677 9.164-9.453 9.164s-8.728-3.973-9.453-9.164z" class="cls-3" data-name="Tracé 31063" transform="translate(-136.91 -233.205)"/>
            <path id="Tracé_31064" d="M411.552 436.2a1.7 1.7 0 0 1 .852.211 1.354 1.354 0 0 1 .542.6 1.947 1.947 0 0 1 .169.831 4.593 4.593 0 0 1-.711 2.212 8.494 8.494 0 0 1-2.2 2.458 4.543 4.543 0 0 1-2.543 1.05 1.7 1.7 0 0 1-.852-.211 1.354 1.354 0 0 1-.542-.6 1.947 1.947 0 0 1-.169-.831 4.572 4.572 0 0 1 .711-2.212 8.586 8.586 0 0 1 2.2-2.458 4.581 4.581 0 0 1 2.543-1.05zm.507.81a.967.967 0 0 0-.507-.113 3.869 3.869 0 0 0-2.12.9 7.8 7.8 0 0 0-2.008 2.247 3.934 3.934 0 0 0-.62 1.867 1.285 1.285 0 0 0 .1.528.727.727 0 0 0 .268.3.967.967 0 0 0 .507.113 3.908 3.908 0 0 0 2.127-.9 7.8 7.8 0 0 0 2.008-2.247 3.911 3.911 0 0 0 .62-1.867 1.285 1.285 0 0 0-.1-.528.743.743 0 0 0-.275-.3z" class="cls-3" data-name="Tracé 31064" transform="translate(-143.289 -233.27)"/>
            <path id="Tracé_31065" d="M385.631 458.322l-29.768 43.729a1.05 1.05 0 0 1-.873.465h-96.454a1.077 1.077 0 0 1-.916-.521l-29.768-43.729a1.06 1.06 0 0 1 .275-1.472 1.049 1.049 0 0 1 .6-.183h156.065a1.067 1.067 0 0 1 1.064 1.064 1.11 1.11 0 0 1-.225.648zm-16.624 20.639l13.771-20.23H230.726l28.359 41.658h95.333z" class="cls-4" data-name="Tracé 31065" transform="translate(-90.544 -239.304)"/>
            <path id="Tracé_31066" d="M359.882 458.061l-12.728 43.687a1.059 1.059 0 0 1-1.014.768l-41.3.007a1.065 1.065 0 0 1-1.043-.859l-12.735-43.694a1.057 1.057 0 0 1 .726-1.31 1.071 1.071 0 0 1 .3-.042l66.819-.007a1.067 1.067 0 0 1 1.064 1.064 1.723 1.723 0 0 1-.085.387zm-8.389 21.209l5.987-20.533h-63.994l12.143 41.663h39.707z" class="cls-4" data-name="Tracé 31066" transform="translate(-109.271 -239.304)"/>
            <path id="Rectangle_4091" d="M0 0H186.271V6.375H0z" class="cls-12" data-name="Rectangle 4091" transform="translate(124.566 211.065)"/>
            <path id="Rectangle_4092" fill="#ccc" d="M0 0H62.734V6.375H0z" data-name="Rectangle 4092" transform="translate(248.103 211.065)"/>
            <path id="Tracé_31067" d="M579.935 473.4a1.5 1.5 0 0 0-.127.6 4.4 4.4 0 0 1 .127-.6z" class="cls-13" data-name="Tracé 31067" transform="translate(-194.636 -244.267)"/>
            <path id="Ligne_53" fill="#e0d9d0" d="M0 0.465L0.021 0" data-name="Ligne 53" transform="translate(401.993 228.013)"/>
            <path id="Rectangle_4093" d="M0 0H32.057V51.132H0z" class="cls-12" data-name="Rectangle 4093" transform="translate(162.279 35.494)"/>
            <path id="Rectangle_4094" fill="#d2ecfc" d="M0 0H32.057V48.054H0z" data-name="Rectangle 4094" transform="translate(162.279 35.494)"/>
            <path id="Tracé_31068" d="M263.38 236.335v-2.064a45.693 45.693 0 0 1 4.565-1.271c3.656-.711 1.831-1.522 2.536-3.346s3.353-.817 9.037.916 4.973-2.437 10.179-2.487a20.753 20.753 0 0 1 5.734.979v3.635c-8.538.948-22.746 2.554-32.051 3.638z" class="cls-3" data-name="Tracé 31068" transform="translate(-101.101 -171.75)"/>
            <path id="Tracé_31069" d="M283.345 248.26c-.521 0 17.7-2.043 17.7-2.043a13.667 13.667 0 0 0-4.741-1.388c-1.9.014-1.641 1.536-3.719.909s-3.043-1-3.3-.331.409.965-.93 1.226a51.672 51.672 0 0 0-5.01 1.627z" class="cls-3" data-name="Tracé 31069" transform="translate(-106.999 -176.701)"/>
            <path id="Tracé_31070" d="M262.966 216.084c-.486 0 16.455-1.895 16.455-1.895a12.641 12.641 0 0 0-4.4-1.289c-1.768.014-1.529 1.43-3.459.845s-2.825-.93-3.071-.31.38.895-.859 1.134-4.666 1.515-4.666 1.515z" class="cls-3" data-name="Tracé 31070" transform="translate(-100.975 -167.263)"/>
            <path id="Tracé_31071" d="M285.406 204.886c-.4 0 13.694-1.578 13.694-1.578a10.61 10.61 0 0 0-3.67-1.078c-1.472.014-1.268 1.19-2.881.7s-2.353-.775-2.557-.261.317.747-.719.944-3.867 1.273-3.867 1.273z" class="cls-3" data-name="Tracé 31071" transform="translate(-107.609 -164.109)"/>
            <path id="Tracé_31072" d="M284.616 231.447s-1.838-.634-1.676.951-.345 3.353-1.8 5.572-4.874 7.593-4.874 7.593-.761 2.6 7.4 2.536 10.066-1.331 10.066-1.331-2.155-1.895-1.458-4.3 1.388-9.073-.063-10.207-7.595-.814-7.595-.814z" class="cls-21" data-name="Tracé 31072" transform="translate(-104.903 -172.708)"/>
            <path id="Tracé_31073" d="M288.71 214.353s.155 3.071 1.141 3.416 2.184-2.219 2.184-2.219-1.494-2.493-3.325-1.197z" class="cls-28" data-name="Tracé 31073" transform="translate(-108.588 -167.582)"/>
            <path id="Tracé_31074" d="M292.813 215.68v3.261l-1.676 1.233-.627-2.592z" class="cls-28" data-name="Tracé 31074" transform="translate(-109.12 -168.084)"/>
            <path id="Tracé_31075" fill="#aeb593" fill-rule="evenodd" d="M275.271 205.08l-.761-.6a8.45 8.45 0 0 1 4.459-2.846c3.1-.888 6.361 1.458 6.361 1.458z" data-name="Tracé 31075" transform="translate(-104.391 -163.874)"/>
            <path id="Tracé_31076" d="M270.29 207.8s3.29 1.3 2.536 4.114a4.178 4.178 0 0 1 4.579 1.219s1.057-2.916 5.248-1.564c.394-.8 2.24-4.191 4.7-4.212 0 0-2.754-1.55-3.261-3.9 0 0-2.909-1.712-5.093.092a7.64 7.64 0 0 0-5.727 1.3 4.666 4.666 0 0 1-2.982 2.951z" class="cls-40" data-name="Tracé 31076" transform="translate(-103.143 -164.256)"/>
            <path id="Tracé_31077" d="M288.145 212.626s-.345 1.423.634 1.775 2.437.155 2.818.916 2.057.571 2.057.571a1.375 1.375 0 0 1-.409-1.55c.373-.916-2.437-4.367-5.1-1.712z" class="cls-21" data-name="Tracé 31077" transform="translate(-108.404 -166.89)"/>
            <path id="Tracé_31078" d="M282.338 207.57c.113.261 3.585 14.285 3.6 14.327l-.69.176c-.007-.042-3.416-13.912-3.557-14.215z" class="cls-40" data-name="Tracé 31078" transform="translate(-106.513 -165.687)"/>
            <path id="Tracé_31079" d="M290.929 219.617s-1.458 1.233-1.585 2.029-1.74 3.226-1.93 3.733-2.247 3.135-1.712 3.515 4.276-.282 6.107-.063a7.756 7.756 0 0 0 3.705-.254c.507-.254-2.148-1.8-2.275-2.656s.634-3.67.063-4.684-1.767-2.191-2.373-1.62z" class="cls-21" data-name="Tracé 31079" transform="translate(-107.673 -169.204)"/>
            <path id="Tracé_31080" d="M271.075 239.334a3.683 3.683 0 0 1-1.613-.479c-.521-.451.218-1.972 2.233-1.726s3 1.923 2.641 2.191-3.261.014-3.261.014z" class="cls-41" data-name="Tracé 31080" transform="translate(-102.851 -174.417)"/>
            <path id="Tracé_31081" d="M270.55 237.291s.6-2.127 1.493-2.346 1.768 2.782 1.768 2.782z" class="cls-41" data-name="Tracé 31081" transform="translate(-103.22 -173.776)"/>
            <path id="Tracé_31082" d="M291.187 220.872s-.028 2.944-.852 3.163-4.494.155-4.712.824-.6 1.676.218 1.831a21.968 21.968 0 0 0 5.854-.6c.6-.345 1.55-3.388 1.423-4.086s-1.396-1.984-1.931-1.132z" class="cls-19" data-name="Tracé 31082" transform="translate(-107.592 -169.536)"/>
            <path id="Tracé_31083" d="M271.143 238.369s-.613 1.831.571 2.36 1.789-1.437 1.7-2.05-2.271-.31-2.271-.31z" class="cls-28" data-name="Tracé 31083" transform="translate(-103.349 -174.769)"/>
            <path id="Tracé_31084" d="M271.851 240.4l-.331 2.015 1.437.451-.345-2.536z" class="cls-28" data-name="Tracé 31084" transform="translate(-103.507 -175.371)"/>
            <path id="Tracé_31085" d="M267.364 249.91c.134-.479-.662-5.656 1.486-6.981s3.078-.895 3.8-.606 2.55 8.115 2.55 8.115z" class="cls-21" data-name="Tracé 31085" transform="translate(-102.267 -175.871)"/>
            <path id="Tracé_31086" fill="#a7bf50" fill-rule="evenodd" d="M263.38 250.833c1.916.479 2.684 1.035 3.8.817 1.268-.254 2.346-1.2 3.923-.7s1.965.951 3.543.888 3.1-1.014 5.318-.7 2.719 1.331 4.557 1.331 4.177-1.078 6.016-1.712 3.353-1.395 4.494-.38a2.559 2.559 0 0 0 .409.3v14.13h-32.06z" data-name="Tracé 31086" transform="translate(-101.101 -178.196)"/>
            <path id="Tracé_31087" d="M263.212 197.93h32.458v51.935h-32.86V197.93zm31.656.8h-31.255v50.329h31.254z" class="cls-3" data-name="Tracé 31087" transform="translate(-100.932 -162.837)"/>
            <path id="Rectangle_4095" d="M0 0H443.355V1.817H0z" class="cls-14" data-name="Rectangle 4095" transform="translate(0 262.846)"/>
            <path id="Tracé_31088" d="M472.05 428.821s.416-2.078 2.268-2.31a3.213 3.213 0 0 1 3.318 2.24c.07.761-4.015 2.289-5.586.07z" class="cls-3" data-name="Tracé 31088" transform="translate(-162.784 -230.4)"/>
        </g>
    </g>
</svg>
