<svg xmlns="http://www.w3.org/2000/svg" xmlns:xlink="http://www.w3.org/1999/xlink" id="walls-insulation" viewBox="0 0 145.475 100"><g transform="translate(0 0)"><rect width="36.674" height="52.893" transform="translate(104.156 47.107)" fill="#dce1f5"></rect><path d="M100.15,107.6H2.74V51.133L50.912,10.57,100.15,51.133Z" transform="translate(4.006 -7.598)" fill="#edeff4"></path><path d="M106.633,47.925l-35.391-29.8a10.845,10.845,0,0,0-7-2.566H26.87L64.488,47.247a27.015,27.015,0,0,0,5.18,3.437h35.948a1.574,1.574,0,0,0,1.477-1.041,1.549,1.549,0,0,0-.46-1.719Z" transform="translate(38.288 -0.513)" fill="#1d1d89"></path><path d="M2.923,59.519a2.977,2.977,0,0,1-1.912-5.253L53.516,10.039a3,3,0,0,1,4.212.363,2.953,2.953,0,0,1-.363,4.188L4.908,58.817a2.953,2.953,0,0,1-1.985.7Z" transform="translate(0.047 -9.342)" fill="#1d1d89"></path><path d="M77.149,59.519a2.953,2.953,0,0,1-1.937-.7L22.707,14.59a2.953,2.953,0,0,1-.363-4.188,3,3,0,0,1,4.212-.363L79.061,54.266a2.978,2.978,0,0,1-1.912,5.253Z" transform="translate(30.856 -9.342)" fill="#1d1d89"></path></g><rect width="87.803" height="36.412" transform="translate(11.666 59.174)" fill="#50c49d"></rect><rect width="28.326" height="36.412" transform="translate(109.201 59.174)" fill="#50c49d"></rect></svg>
