<svg xmlns="http://www.w3.org/2000/svg" xmlns:xlink="http://www.w3.org/1999/xlink" id="thermodynamic-water-heater" viewBox="0 0 136.273 93.706"><g transform="translate(-2978 -824.383)"><g transform="translate(59 -2339)"><g transform="translate(2919 3141)"><g><g transform="translate(0 22.383)"><g><rect width="34.354" height="49.554" transform="translate(97.568 44.152)" fill="#dce1f5"></rect><path d="M93.988,101.491H2.74V48.58L47.865,10.57,93.988,48.58Z" transform="translate(3.579 -7.785)" fill="#edeff4"></path><path d="M101.588,45.882,68.435,17.964a10.158,10.158,0,0,0-6.553-2.4H26.87L62.109,45.247a25.308,25.308,0,0,0,4.853,3.22h33.674a1.474,1.474,0,0,0,1.383-.975,1.452,1.452,0,0,0-.431-1.61Z" transform="translate(34.167 -1.458)" fill="#1d1d89"></path><path d="M2.735,56.351A2.79,2.79,0,0,1,.944,51.43L50.128,10a2.812,2.812,0,0,1,3.946.34,2.767,2.767,0,0,1-.34,3.923L4.595,55.694a2.766,2.766,0,0,1-1.859.658Z" transform="translate(0.047 -9.342)" fill="#1d1d89"></path><path d="M73.638,56.351a2.766,2.766,0,0,1-1.814-.658L22.639,14.259a2.767,2.767,0,0,1-.34-3.923A2.812,2.812,0,0,1,26.245,10L75.429,51.43a2.79,2.79,0,0,1-1.791,4.921Z" transform="translate(27.536 -9.342)" fill="#1d1d89"></path></g></g><rect width="15.663" height="32.756" rx="2" transform="translate(76.138 80.004)" fill="#90c73b"></rect></g></g></g><g transform="translate(3015 870.998)"><g transform="translate(3.65 6.051)"><path d="M9.913,35.078H32.1a.736.736,0,1,0,0-1.472H9.913a3.44,3.44,0,1,1,2.453-5.852.736.736,0,1,0,1.05-1.032,4.913,4.913,0,1,0-3.5,8.357Z" transform="translate(-5 -25.252)" fill="#90c73b"></path></g><g transform="translate(0 0)"><path d="M14.679,27.358H35.751a.736.736,0,0,0,0-1.473H14.679a8.206,8.206,0,1,1,5.852-13.96.736.736,0,0,0,1.05-1.033,9.679,9.679,0,1,0-6.9,16.465Z" transform="translate(-5 -8)" fill="#90c73b"></path></g><g transform="translate(7.503 21.312)"><path d="M9.244,77.246a4.213,4.213,0,0,0,3.026-1.268.736.736,0,0,0-1.05-1.033,2.771,2.771,0,1,1-1.976-4.713h19a.736.736,0,0,0,0-1.473h-19a4.243,4.243,0,1,0,0,8.487Z" transform="translate(-5 -68.759)" fill="#90c73b"></path></g><g transform="translate(12.992 5.553)"><path d="M8.4,30.643H22.759a.736.736,0,0,0,0-1.473H8.405a1.933,1.933,0,1,1,1.379-3.289.736.736,0,1,0,1.05-1.033A3.406,3.406,0,1,0,8.4,30.643Z" transform="translate(-5 -23.831)" fill="#90c73b"></path></g></g></g></svg>
