<svg xmlns="http://www.w3.org/2000/svg" xmlns:xlink="http://www.w3.org/1999/xlink" id="double-glazing" viewBox="0 0 77.406 94.76"><path d="M4.97,0H59.638a4.97,4.97,0,0,1,4.97,4.97V84.487a4.97,4.97,0,0,1-4.97,4.97H4.97A4.97,4.97,0,0,1,0,84.487V4.97A4.97,4.97,0,0,1,4.97,0Z" transform="translate(6.511)" fill="#edeff4"></path><g transform="translate(6.511 0.182)"><g transform="translate(0 0)"><path d="M66.58,2H9.188A3.188,3.188,0,0,0,6,5.188v82.9a3.188,3.188,0,0,0,3.188,3.188H66.58a3.188,3.188,0,0,0,3.188-3.188V5.188A3.188,3.188,0,0,0,66.58,2ZM63.391,43.449H41.072V8.377H63.391ZM34.7,8.377V43.449H12.377V8.377ZM12.377,49.826H34.7V84.9H12.377ZM41.072,84.9V49.826H63.391V84.9Z" transform="translate(-6 -2)" fill="#50c49d"></path></g></g><g transform="translate(0 88.132)"><rect width="77.406" height="6.628" rx="2.183" fill="#1d1d89"></rect></g></svg>
