<svg xmlns="http://www.w3.org/2000/svg" xmlns:xlink="http://www.w3.org/1999/xlink" id="wood-stove" viewBox="0 0 96.131 124"><path d="M4.065,0h88a4.062,4.062,0,0,1,4.065,4.058V93.535a4.062,4.062,0,0,1-4.065,4.058h-88A4.062,4.062,0,0,1,0,93.535V4.058A4.062,4.062,0,0,1,4.065,0Z" transform="translate(0 20.322)" fill="#dce0f4"></path><path d="M13.18,57.05v2.318a3.746,3.746,0,0,0,3.767,3.788h8.466A3.767,3.767,0,0,0,29.18,59.41V57.05Z" transform="translate(-0.016 60.844)" fill="#1d1d89"></path><path d="M39.1,57.05v2.318a3.746,3.746,0,0,0,3.767,3.788h8.445a3.746,3.746,0,0,0,3.746-3.746V57.05Z" transform="translate(27.888 60.844)" fill="#1d1d89"></path><path d="M64.128,12.606V10.722A3.332,3.332,0,0,0,60.8,7.39H22.462a3.332,3.332,0,0,0-3.332,3.332v1.884Z" transform="translate(6.437 7.492)" fill="#1d1d89"></path><path d="M45.727.2H27.389A3.5,3.5,0,0,0,23.87,3.7V15.082H49.246V3.7A3.5,3.5,0,0,0,45.727.2Z" transform="translate(11.508 -0.2)" fill="#8d9edd"></path><path d="M11.17,22.918V73.5a3.212,3.212,0,0,0,3.195,3.208H86.1A3.212,3.212,0,0,0,89.294,73.5V22.918A3.191,3.191,0,0,0,86.1,19.71H14.365a3.191,3.191,0,0,0-3.195,3.208Z" transform="translate(-2.166 20.808)" fill="#fff"></path><rect width="30.944" height="6.065" rx="0.51" transform="matrix(-0.882, -0.472, 0.472, -0.882, 60.286, 88.827)" fill="#e0b699"></rect><rect width="30.944" height="6.065" rx="0.51" transform="translate(32.982 83.481) rotate(-28.16)" fill="#efd0b9"></rect><path d="M44.254,42.646a9.4,9.4,0,0,1-18.794,0,19.394,19.394,0,0,1,2.277-8.134c.5-.973,1.014-1.925,1.573-2.836,1.594,2.07.994,5.733,1.47,7.8a2.235,2.235,0,0,0,3,1.677c1.635-.58,1.387-2.442,1.076-3.809-.455-1.966-2.442-3.56-2.463-7.389A8.093,8.093,0,0,1,34.857,24.1a18.629,18.629,0,0,0-.248,6.209c.352,1.366,1.345,2.774,2.567,2.4,1.821-.538-.248-2.753.89-4.678C40.8,31.779,44.254,37.512,44.254,42.646Z" transform="translate(13.209 25.485)" fill="#ff501a"></path></svg>
