<svg xmlns="http://www.w3.org/2000/svg" xmlns:xlink="http://www.w3.org/1999/xlink" id="wood-boiler" viewBox="0 0 108.728 124"><g transform="translate(0 0)"><rect width="108.727" height="124" rx="3.81" transform="translate(0)" fill="#dce1f5"></rect><rect width="89.539" height="124" transform="translate(9.605)" fill="#edeff4"></rect><rect width="70.029" height="34.783" rx="2.06" transform="translate(19.36 77.13)" fill="#4b66cd"></rect><rect width="20.451" height="13.391" rx="0.49" transform="translate(44.149 88.709)" fill="#1d1d89"></rect><ellipse cx="5.241" cy="5.241" rx="5.241" ry="5.241" transform="translate(27.758 90.196)" fill="#ff501a"></ellipse><ellipse cx="5.241" cy="5.241" rx="5.241" ry="5.241" transform="translate(69.263 99.039) rotate(-74.38)" fill="#ff501a"></ellipse></g><g transform="translate(37.274 20.015)"><rect width="34.36" height="6.735" rx="1.63" transform="matrix(-0.882, -0.472, 0.472, -0.882, 30.294, 43.503)" fill="#e0b699"></rect><rect width="34.36" height="6.735" rx="1.63" transform="translate(0 37.57) rotate(-28.16)" fill="#efd0b9"></rect><path d="M36.026,20.656a10.438,10.438,0,0,1-20.846,0,21.39,21.39,0,0,1,2.545-9.036c.532-1.085,1.121-2.157,1.732-3.141,1.768,2.257,1.107,6.369,1.646,8.626a2.48,2.48,0,0,0,3.292,1.9c1.811-.661,1.531-2.724,1.186-4.234-.5-2.157-2.71-3.954-2.746-8.216A9.021,9.021,0,0,1,25.582.09s-.891,4.486-.273,6.879c.4,1.524,1.488,3.077,2.875,2.66,2.02-.618-.266-3.033,1-5.132C32.18,8.587,36.026,14.956,36.026,20.656Z" transform="translate(-8.855 -0.09)" fill="#ff501a"></path></g></svg>
