<svg xmlns="http://www.w3.org/2000/svg" xmlns:xlink="http://www.w3.org/1999/xlink" id="yes" viewBox="0 0 97.959 132.378"><g transform="translate(0 0)"><path d="M25.045,104.027H14.54C4.158,104.027,0,99.876,0,89.513v-75C0,4.152,4.159,0,14.54,0H83.417V0C93.8,0,97.959,4.152,97.959,14.514v75c0,10.363-4.16,14.514-14.543,14.514H53.446l-28.4,28.351ZM83.417,2.014V4.029H14.54c-8.152,0-10.5,2.348-10.5,10.485v75C4.036,97.651,6.387,100,14.54,100h14.54v22.653L51.774,100H83.417c8.154,0,10.507-2.347,10.507-10.485v-75c0-8.136-2.353-10.485-10.507-10.485Z" fill="#061dc1"></path></g><g transform="translate(18.292 28.656)"><path d="M959.326-229a7.077,7.077,0,0,1,5.113,12.174l-33.113,33.112a5.34,5.34,0,0,1-7.467,0L907.06-200.6c-6.98-6.655,3.327-16.962,9.982-9.982l9.333,9.333a1.868,1.868,0,0,0,2.516,0l25.565-25.565a6.972,6.972,0,0,1,4.87-2.191Z" transform="translate(-904.731 229.003)" fill="#6ce5b6"></path></g></svg>
